<?xml version="1.0" encoding="utf-8"?>
<!-- Generator: Adobe Illustrator 22.0.0, SVG Export Plug-In . SVG Version: 6.00 Build 0)  -->
<svg version="1.1" id="Calque_1" xmlns="http://www.w3.org/2000/svg" xmlns:xlink="http://www.w3.org/1999/xlink" x="0px" y="0px"
	 viewBox="0 0 724.4 484.1" style="enable-background:new 0 0 724.4 484.1;" xml:space="preserve">
<style type="text/css">
	.st0{display:none;fill:none;stroke:#000000;stroke-width:4;stroke-miterlimit:10;}
	.st1{fill:none;stroke:#000000;stroke-width:10.7661;stroke-miterlimit:10;}
	.st2{fill:#EF7C0F;}
	.st3{fill:#3C3C3B;}
	.st4{fill:#E4444E;}
	.st5{fill:none;stroke:#E4444E;stroke-width:2;stroke-linecap:round;stroke-linejoin:round;stroke-miterlimit:10;}
	.st6{fill:none;stroke:#E4444E;stroke-width:2;stroke-miterlimit:10;}
</style>
<path class="st0" d="M447.6,93.6l-77,91.7l-77-91.7c10.3-9.5,22.3-17.1,35.5-22.3c12.9-5.1,26.9-7.8,41.5-7.8s28.7,2.8,41.5,7.8
	C425.3,76.5,437.3,84.1,447.6,93.6z"/>
<path class="st0" d="M257.8,165.4l112.8,19.9l-36,99c-11.9-4-22.8-9.8-32.6-17.3c-10-7.6-18.7-16.8-25.7-27.3
	c-7.1-10.6-12.4-22.4-15.6-35.1c-2.3-8.9-3.5-18.3-3.5-27.9C257.2,173,257.4,169.2,257.8,165.4z"/>
<path class="st0" d="M484,176.8c0,9.6-1.2,19-3.5,27.9c-3.2,12.7-8.5,24.5-15.6,35.1c-7,10.5-15.7,19.7-25.7,27.3
	c-9.7,7.4-20.7,13.3-32.6,17.3l-36-99l112.8-19.9C483.8,169.2,484,173,484,176.8z"/>
<path class="st1" d="M355,269.9"/>
<g>
	<g>
		<g>
			<path class="st2" d="M507.5,127.8c0,0,0.4-1.3,0.8-3.4c0.5-2.2,1-5.2,1.2-8.7c0.4-7-0.4-16.1-4.7-23.3c0,0-1.3-1.5,0.4-0.4
				c7.5,3.7,16.6,5.2,24.1,6.1c3.7,0.4,7,0.7,9.4,0.8c2.4,0.1,3.8,0.1,3.8,0.1l-10,8.3c3.3,4.1,6.5,8.3,9.6,12.5
				c5.6,7.9,10.7,16,15.2,24.5l-8.7,4.7l0.5-0.3l-8.7,4.7c-4.2-7.8-8.9-15.2-14-22.4c-2.8-3.9-5.8-7.7-8.8-11.4L507.5,127.8z"/>
			<path class="st2" d="M547,206.9c0,0,1.2,0.5,3.2,1.4c1,0.5,2.2,1,3.5,1.8c1.3,0.7,2.7,1.6,4.2,2.5c5.9,3.9,12.6,10,15.8,17.8
				c0,0,0.1,0.5,0.2,0.7l0,0c0.1,0.2,0.2,0.2,0.3,0l0,0c0-0.1,0.1-0.4,0.1-0.7c1.5-8.2,5.8-16.4,9.6-22.9c0.9-1.6,1.9-3.1,2.7-4.5
				c0.8-1.3,1.6-2.5,2.3-3.5c1.3-2,2.2-3.1,2.2-3.1l-12.7,3c-1.2-4.9-2.5-9.7-4-14.4c-3-9.6-6.7-19-10.9-28.1l-8.9,4.1l0.6-0.3
				l-8.9,4.1c3.9,8.4,7.2,17,9.9,25.8c1.3,4.4,2.5,8.8,3.6,13.2L547,206.9z"/>
		</g>
	</g>
</g>
<path class="st1" d="M355,269.9"/>
<g>
	<g>
		<g>
			<path class="st2" d="M271.9,450.8c10.5,6.5,21.7,12.1,33.4,16.3c11.7,4.2,24,7,36.5,8.1c6.2,0.6,12.5,0.7,18.8,0.5
				c6.3-0.3,12.5-0.9,18.7-2c6.2-1.1,12.3-2.5,18.2-4.3l4.5-1.4l1.1-0.4l0.5-0.2l0.5-0.2l2.1-0.8l4.4,11.8
				c9.8-10.6,17.6-22,23.8-33.6c-6.6,0.2-13,0-19.3-0.5c-6.3-0.5-12.3-1.6-18.1-2.9l4.4,11.8l-1.9,0.7l-0.5,0.2l-0.5,0.2l-1,0.3
				l-4,1.3c-5.4,1.6-10.9,2.9-16.5,3.9c-5.6,0.9-11.2,1.6-16.8,1.8c-5.6,0.2-11.3,0-16.9-0.5c-22.5-2-44.3-10.2-63.7-22.3
				L271.9,450.8z"/>
		</g>
	</g>
</g>
<path class="st1" d="M355,269.9"/>
<g>
	<g>
		<g>
			<path class="st2" d="M163,206.9c0,0-1.2,0.5-3.2,1.4c-1,0.5-2.2,1-3.5,1.8c-1.3,0.7-2.7,1.6-4.2,2.5c-5.9,3.9-12.6,10-15.8,17.8
				c0,0-0.4,1.9-0.6-0.1c-1.5-8.2-5.8-16.4-9.6-22.9c-0.9-1.6-1.9-3.1-2.7-4.5c-0.8-1.3-1.6-2.5-2.3-3.5c-1.3-2-2.2-3.1-2.2-3.1
				l12.7,3c1.3-5.1,2.7-10.2,4.3-15.2c2.9-9.2,6.4-18.2,10.5-26.9l8.9,4.1l-0.6-0.3l8.9,4.1c-3.7,8-6.8,16.3-9.5,24.7
				c-1.4,4.6-2.7,9.2-3.8,13.9L163,206.9z"/>
			<path class="st2" d="M202.6,127.8c0,0-0.4-1.3-0.8-3.4c-0.5-2.2-1-5.2-1.2-8.7c-0.4-7,0.4-16.1,4.7-23.3c0,0,1.3-1.5-0.4-0.4
				c-7.5,3.7-16.6,5.2-24.1,6.1c-3.7,0.4-7,0.7-9.4,0.8c-2.4,0.1-3.8,0.1-3.8,0.1l10,8.3c-3.1,3.9-6.2,7.8-9.1,11.9
				c-5.9,8.2-11.2,16.7-15.9,25.6l8.7,4.7l-0.5-0.3l8.7,4.7c4.4-8.1,9.3-15.9,14.7-23.4c2.7-3.7,5.5-7.3,8.4-10.9L202.6,127.8z"/>
		</g>
	</g>
</g>
<g>
	<path class="st3" d="M69,281.4c-0.6,1.2-1.3,2.3-2.2,3.2c-0.9,0.9-2,1.6-3.3,2.1c-1.3,0.5-2.6,0.8-4.1,0.8c-1.8,0-3.4-0.3-4.9-1
		c-1.4-0.7-2.6-1.6-3.6-2.8c-1-1.2-1.7-2.5-2.3-4c-0.5-1.5-0.8-3.2-0.8-4.9c0-1.8,0.3-3.5,0.8-5.1c0.5-1.6,1.3-2.9,2.3-4.1
		c1-1.2,2.2-2.1,3.7-2.8c1.5-0.7,3.1-1,5-1c1.3,0,2.5,0.2,3.7,0.6c1.2,0.4,2.3,0.9,3.2,1.7c1,0.7,1.7,1.6,2.4,2.7s1,2.3,1.1,3.6
		h-3.2c-0.1-0.9-0.4-1.7-0.8-2.4c-0.4-0.7-1-1.3-1.7-1.8c-0.7-0.5-1.4-0.9-2.3-1.2s-1.7-0.4-2.5-0.4c-1.4,0-2.7,0.3-3.8,0.9
		c-1.1,0.6-2,1.4-2.7,2.3c-0.7,1-1.2,2.1-1.6,3.3c-0.3,1.2-0.5,2.5-0.5,3.8c0,1.2,0.2,2.4,0.5,3.7c0.3,1.2,0.8,2.3,1.5,3.2
		c0.7,0.9,1.5,1.7,2.6,2.3c1,0.6,2.2,0.9,3.6,0.9c1.1,0,2.1-0.2,3-0.6c0.9-0.4,1.6-0.9,2.3-1.6c0.6-0.7,1.1-1.5,1.5-2.4
		c0.4-0.9,0.6-1.9,0.8-3H70C69.9,278.8,69.5,280.1,69,281.4z"/>
	<path class="st3" d="M89.7,278c0,1.2-0.2,2.4-0.5,3.5s-0.9,2.1-1.6,3c-0.7,0.9-1.6,1.5-2.7,2c-1.1,0.5-2.3,0.8-3.8,0.8
		c-1.4,0-2.7-0.3-3.8-0.8c-1.1-0.5-2-1.2-2.7-2c-0.7-0.9-1.3-1.8-1.6-3c-0.4-1.1-0.5-2.3-0.5-3.5s0.2-2.4,0.5-3.5
		c0.4-1.1,0.9-2.1,1.6-3c0.7-0.9,1.6-1.5,2.7-2c1.1-0.5,2.3-0.8,3.8-0.8c1.4,0,2.7,0.3,3.8,0.8c1.1,0.5,2,1.2,2.7,2
		c0.7,0.9,1.3,1.8,1.6,3C89.5,275.7,89.7,276.8,89.7,278z M86.7,278c0-0.9-0.1-1.7-0.3-2.5c-0.2-0.8-0.6-1.6-1-2.2
		c-0.5-0.7-1-1.2-1.7-1.6c-0.7-0.4-1.5-0.6-2.5-0.6c-1,0-1.8,0.2-2.5,0.6c-0.7,0.4-1.3,0.9-1.7,1.6s-0.8,1.4-1,2.2s-0.3,1.7-0.3,2.5
		c0,0.9,0.1,1.7,0.3,2.5c0.2,0.8,0.6,1.6,1,2.2s1,1.2,1.7,1.6c0.7,0.4,1.5,0.6,2.5,0.6c1,0,1.8-0.2,2.5-0.6c0.7-0.4,1.3-0.9,1.7-1.6
		c0.5-0.6,0.8-1.4,1-2.2C86.6,279.7,86.7,278.9,86.7,278z"/>
	<path class="st3" d="M117.3,286.8v-10.7c0-0.7-0.1-1.4-0.3-1.9s-0.4-1.1-0.8-1.6c-0.3-0.4-0.8-0.8-1.3-1c-0.5-0.3-1.2-0.4-1.9-0.4
		c-0.9,0-1.6,0.2-2.2,0.5c-0.6,0.3-1.1,0.8-1.5,1.3c-0.4,0.5-0.7,1.2-0.9,1.9c-0.2,0.7-0.3,1.4-0.3,2.2v9.7h-3v-10.7
		c0-0.7-0.1-1.4-0.3-1.9c-0.2-0.6-0.4-1.1-0.8-1.6c-0.4-0.4-0.8-0.8-1.3-1c-0.5-0.3-1.2-0.4-1.9-0.4c-0.8,0-1.6,0.2-2.2,0.5
		c-0.6,0.3-1.1,0.8-1.6,1.3c-0.4,0.5-0.7,1.2-0.9,1.9c-0.2,0.7-0.3,1.4-0.3,2.2v9.7h-3v-17.6h3v3.4c0.5-1.3,1.3-2.3,2.4-2.9
		c1.1-0.6,2.3-0.9,3.7-0.9c1.6,0,2.9,0.4,3.9,1.2c1,0.8,1.7,1.9,2,3.2c0.5-1.5,1.3-2.6,2.3-3.3c1.1-0.7,2.4-1.1,4-1.1
		c1.9,0,3.4,0.6,4.5,1.7c1.1,1.1,1.7,2.6,1.7,4.5v11.9H117.3z"/>
	<path class="st3" d="M148.5,286.8v-10.7c0-0.7-0.1-1.4-0.3-1.9s-0.4-1.1-0.8-1.6c-0.3-0.4-0.8-0.8-1.3-1c-0.5-0.3-1.2-0.4-1.9-0.4
		c-0.9,0-1.6,0.2-2.2,0.5c-0.6,0.3-1.1,0.8-1.5,1.3c-0.4,0.5-0.7,1.2-0.9,1.9c-0.2,0.7-0.3,1.4-0.3,2.2v9.7h-3v-10.7
		c0-0.7-0.1-1.4-0.3-1.9c-0.2-0.6-0.4-1.1-0.8-1.6c-0.4-0.4-0.8-0.8-1.3-1c-0.5-0.3-1.2-0.4-1.9-0.4c-0.8,0-1.6,0.2-2.2,0.5
		c-0.6,0.3-1.1,0.8-1.6,1.3c-0.4,0.5-0.7,1.2-0.9,1.9c-0.2,0.7-0.3,1.4-0.3,2.2v9.7h-3v-17.6h3v3.4c0.5-1.3,1.3-2.3,2.4-2.9
		c1.1-0.6,2.3-0.9,3.7-0.9c1.6,0,2.9,0.4,3.9,1.2c1,0.8,1.7,1.9,2,3.2c0.5-1.5,1.3-2.6,2.3-3.3c1.1-0.7,2.4-1.1,4-1.1
		c1.9,0,3.4,0.6,4.5,1.7c1.1,1.1,1.7,2.6,1.7,4.5v11.9H148.5z"/>
	<path class="st3" d="M167.5,286.8v-3.4c-0.5,1.3-1.3,2.3-2.4,2.9c-1,0.6-2.3,0.9-3.7,0.9c-1.9,0-3.4-0.6-4.5-1.7
		c-1.1-1.1-1.7-2.6-1.7-4.5v-11.9h3v10.7c0,0.7,0.1,1.4,0.3,2c0.2,0.6,0.4,1.1,0.8,1.6s0.8,0.8,1.3,1c0.5,0.3,1.2,0.4,1.9,0.4
		c0.8,0,1.6-0.2,2.2-0.5c0.6-0.3,1.1-0.8,1.6-1.3c0.4-0.5,0.7-1.2,0.9-1.9c0.2-0.7,0.3-1.4,0.3-2.2v-9.7h3v17.6H167.5z"/>
	<path class="st3" d="M186.4,286.8v-10.7c0-0.7-0.1-1.4-0.3-2c-0.2-0.6-0.4-1.1-0.8-1.6c-0.4-0.4-0.8-0.8-1.3-1
		c-0.5-0.3-1.2-0.4-1.9-0.4c-0.8,0-1.6,0.2-2.2,0.5c-0.6,0.3-1.1,0.8-1.6,1.3c-0.4,0.5-0.7,1.2-0.9,1.9c-0.2,0.7-0.3,1.4-0.3,2.2
		v9.7h-3v-17.6h3l0,3.4c0.5-1.3,1.3-2.3,2.4-2.9c1-0.6,2.3-0.9,3.7-0.9c1.9,0,3.4,0.6,4.5,1.7c1.1,1.1,1.7,2.6,1.7,4.5v11.9H186.4z"
		/>
	<path class="st3" d="M196.6,263.5c0,0.5-0.2,1-0.6,1.3c-0.4,0.3-0.9,0.5-1.4,0.5c-0.5,0-1-0.2-1.4-0.5c-0.4-0.3-0.6-0.8-0.6-1.3
		c0-0.5,0.2-1,0.6-1.3c0.4-0.3,0.9-0.5,1.4-0.5c0.5,0,1,0.2,1.4,0.5C196.4,262.5,196.6,263,196.6,263.5z M193,286.8v-17.6h3v17.6
		H193z"/>
	<path class="st3" d="M202.7,271.2v15.6h-3v-15.6h-1.8v-2h1.8v-4.2l3-1.9v6h1.8v2H202.7z"/>
	<path class="st3" d="M221.2,289.9c-0.3,0.9-0.7,1.7-1.4,2.4c-0.6,0.7-1.5,1.2-2.5,1.6c-1,0.4-2.3,0.6-3.8,0.6c-1,0-1.9-0.1-2.8-0.3
		c-0.9-0.2-1.7-0.5-2.4-1c-0.7-0.4-1.3-1-1.7-1.7c-0.5-0.7-0.7-1.6-0.8-2.7h2.9c0,0.6,0.2,1.2,0.5,1.6c0.3,0.5,0.6,0.9,1,1.2
		c0.4,0.3,0.9,0.5,1.4,0.7c0.5,0.2,1.1,0.2,1.7,0.2c1.8,0,3.1-0.5,3.9-1.5c0.9-1,1.3-2.3,1.3-4v-3.6c-0.5,1.3-1.3,2.3-2.4,2.9
		c-1,0.6-2.3,0.9-3.7,0.9c-1.9,0-3.4-0.6-4.5-1.7c-1.1-1.1-1.7-2.6-1.7-4.5v-11.9h3v10.7c0,0.7,0.1,1.4,0.3,2
		c0.2,0.6,0.4,1.1,0.8,1.6s0.8,0.8,1.3,1c0.5,0.3,1.2,0.4,1.9,0.4c0.8,0,1.6-0.2,2.2-0.5c0.6-0.3,1.1-0.8,1.6-1.3
		c0.4-0.5,0.7-1.2,0.9-1.9c0.2-0.7,0.3-1.4,0.3-2.2v-9.7h3v17.7C221.6,287.9,221.5,288.9,221.2,289.9z"/>
	<path class="st3" d="M21.6,325.8c-0.1,0.4-0.3,0.7-0.6,1c-0.3,0.3-0.6,0.5-1.1,0.7s-1,0.3-1.7,0.3H6.1v-24.6h1.5v23.2h10.2
		c0.6,0,1.1-0.1,1.5-0.2s0.6-0.3,0.8-0.5c0.2-0.2,0.3-0.5,0.3-0.8c0-0.3,0.1-0.6,0.1-0.8l1.2,0.5C21.7,325,21.7,325.5,21.6,325.8z"
		/>
	<path class="st3" d="M39.2,319c0,1.2-0.2,2.4-0.5,3.5c-0.4,1.1-0.9,2.1-1.6,2.9c-0.7,0.9-1.5,1.5-2.5,2c-1,0.5-2.2,0.8-3.5,0.8
		c-1.3,0-2.5-0.3-3.5-0.8c-1-0.5-1.9-1.2-2.5-2c-0.7-0.9-1.2-1.8-1.5-2.9c-0.3-1.1-0.5-2.3-0.5-3.5s0.2-2.4,0.5-3.5s0.9-2.1,1.5-2.9
		c0.7-0.9,1.5-1.5,2.5-2c1-0.5,2.2-0.8,3.5-0.8c1.3,0,2.5,0.3,3.5,0.8c1,0.5,1.9,1.2,2.5,2c0.7,0.9,1.2,1.8,1.6,2.9
		C39.1,316.7,39.2,317.8,39.2,319z M37.8,319c0-1-0.1-2-0.4-3s-0.7-1.8-1.3-2.5c-0.6-0.7-1.3-1.3-2.1-1.8c-0.8-0.5-1.8-0.7-2.9-0.7
		c-1.1,0-2.1,0.2-2.9,0.7c-0.8,0.5-1.5,1.1-2.1,1.8c-0.6,0.7-1,1.6-1.2,2.5c-0.3,1-0.4,1.9-0.4,3s0.1,2,0.4,3c0.3,1,0.7,1.8,1.2,2.6
		c0.6,0.8,1.3,1.3,2.1,1.8c0.8,0.4,1.8,0.7,2.9,0.7c1.1,0,2.1-0.2,2.9-0.7c0.8-0.4,1.5-1,2.1-1.8c0.6-0.7,1-1.6,1.3-2.6
		S37.8,320,37.8,319z"/>
	<path class="st3" d="M54.8,326.5c-1.3,1.2-3,1.7-5,1.7c-1.3,0-2.4-0.2-3.4-0.7c-1-0.5-1.8-1.1-2.5-1.9c-0.7-0.8-1.2-1.7-1.6-2.8
		c-0.4-1.1-0.5-2.2-0.5-3.4c0-1.3,0.2-2.5,0.5-3.7c0.4-1.1,0.9-2.2,1.6-3c0.7-0.9,1.6-1.6,2.6-2.1c1-0.5,2.3-0.8,3.7-0.8
		c0.9,0,1.8,0.1,2.6,0.4c0.8,0.3,1.5,0.7,2.1,1.2c0.6,0.5,1.1,1.1,1.5,1.9c0.4,0.7,0.7,1.6,0.8,2.5h-1.4c-0.2-1.5-0.8-2.7-1.8-3.5
		c-1-0.8-2.2-1.2-3.7-1.2c-1.2,0-2.3,0.2-3.2,0.7c-0.9,0.5-1.6,1.1-2.2,1.8c-0.6,0.8-1,1.6-1.2,2.6c-0.3,1-0.4,2-0.4,3.1
		c0,1,0.1,2,0.4,2.9c0.3,0.9,0.7,1.7,1.2,2.5c0.6,0.7,1.2,1.3,2.1,1.7c0.8,0.4,1.8,0.6,2.9,0.6c0.8,0,1.5-0.1,2.2-0.4
		c0.7-0.3,1.3-0.6,1.8-1.1c0.5-0.5,1-1,1.3-1.7c0.3-0.6,0.5-1.4,0.6-2.2h1.4C56.9,323.7,56.2,325.3,54.8,326.5z"/>
	<path class="st3" d="M73.9,327.8v-3.1c-0.6,1.1-1.4,2-2.5,2.6c-1.1,0.6-2.3,0.9-3.8,0.9c-1.3,0-2.4-0.2-3.4-0.7
		c-1-0.5-1.8-1.1-2.5-1.9c-0.7-0.8-1.2-1.7-1.6-2.8c-0.4-1.1-0.5-2.2-0.5-3.4c0-1.3,0.2-2.5,0.5-3.6s0.9-2.2,1.6-3
		c0.7-0.9,1.6-1.6,2.6-2.1c1-0.5,2.3-0.8,3.7-0.8c1.2,0,2.4,0.3,3.4,0.8c1.1,0.5,1.9,1.3,2.5,2.3v-2.7h1.4v17.6H73.9z M73.9,315.8
		c0-0.7-0.2-1.3-0.5-1.9c-0.3-0.6-0.8-1.1-1.3-1.5s-1.2-0.8-1.8-1s-1.4-0.4-2-0.4c-1.3,0-2.4,0.2-3.3,0.7c-0.9,0.5-1.6,1.1-2.2,1.9
		c-0.6,0.8-1,1.7-1.2,2.7c-0.2,1-0.4,2-0.4,2.9c0,1,0.1,2,0.4,2.9c0.3,0.9,0.7,1.7,1.3,2.5c0.6,0.7,1.3,1.3,2.1,1.7
		c0.8,0.4,1.8,0.6,2.9,0.6c0.8,0,1.6-0.1,2.3-0.4c0.7-0.2,1.4-0.6,1.9-1.1c0.6-0.5,1-1,1.3-1.7c0.3-0.7,0.5-1.4,0.5-2.2V315.8z"/>
	<path class="st3" d="M79.1,327.8v-24.6h1.4v24.6H79.1z"/>
	<path class="st3" d="M109.6,319.4c0,1.2-0.2,2.4-0.5,3.4c-0.4,1.1-0.9,2-1.6,2.8c-0.7,0.8-1.5,1.4-2.5,1.9c-1,0.5-2.1,0.7-3.4,0.7
		c-1.4,0-2.7-0.3-3.8-0.9c-1.1-0.6-1.9-1.5-2.5-2.6v10.1h-1.4v-24.6h1.4v2.7c0.6-1,1.4-1.8,2.5-2.3c1.1-0.5,2.2-0.8,3.4-0.8
		c1.4,0,2.6,0.3,3.7,0.8c1,0.5,1.9,1.2,2.6,2.1c0.7,0.9,1.2,1.9,1.6,3C109.5,316.8,109.6,318.1,109.6,319.4z M108.2,319.3
		c0-1-0.1-2-0.4-2.9s-0.6-1.9-1.2-2.7c-0.6-0.8-1.3-1.4-2.2-1.9c-0.9-0.5-2-0.7-3.3-0.7c-0.7,0-1.4,0.1-2,0.4s-1.3,0.6-1.8,1
		s-1,0.9-1.3,1.5c-0.3,0.6-0.5,1.2-0.5,1.8v6c0,0.8,0.2,1.6,0.5,2.2c0.3,0.7,0.8,1.2,1.3,1.7c0.6,0.5,1.2,0.8,1.9,1.1
		c0.7,0.2,1.5,0.4,2.3,0.4c1.1,0,2.1-0.2,2.9-0.6c0.8-0.4,1.5-1,2.1-1.7c0.6-0.7,1-1.5,1.3-2.5C108.1,321.3,108.2,320.4,108.2,319.3
		z"/>
	<path class="st3" d="M125.2,326.5c-1.3,1.2-3,1.7-5,1.7c-1.3,0-2.4-0.2-3.4-0.7c-1-0.5-1.8-1.1-2.5-1.9c-0.7-0.8-1.2-1.7-1.6-2.8
		c-0.4-1.1-0.5-2.2-0.5-3.4c0-1.3,0.2-2.5,0.5-3.7c0.3-1.1,0.9-2.2,1.6-3c0.7-0.9,1.6-1.6,2.6-2.1c1-0.5,2.3-0.8,3.7-0.8
		c0.9,0,1.8,0.1,2.6,0.4c0.8,0.3,1.5,0.7,2.1,1.2c0.6,0.5,1.1,1.1,1.5,1.9c0.4,0.7,0.7,1.6,0.8,2.5l-13.8,5c0.1,0.9,0.3,1.7,0.7,2.4
		s0.8,1.4,1.3,2c0.5,0.6,1.2,1,1.9,1.3c0.8,0.3,1.6,0.5,2.6,0.5c0.8,0,1.5-0.1,2.2-0.4c0.7-0.3,1.3-0.6,1.8-1.1c0.5-0.5,1-1,1.3-1.7
		c0.3-0.6,0.5-1.4,0.6-2.2h1.4C127.3,323.7,126.5,325.3,125.2,326.5z M124,312.1c-1-0.7-2.1-1.1-3.5-1.1c-1.2,0-2.2,0.2-3.1,0.7
		c-0.9,0.4-1.6,1-2.1,1.8s-1,1.6-1.3,2.6c-0.3,1-0.4,2-0.4,3.1v0.6l12.4-4.5C125.6,313.9,125,312.9,124,312.1z"/>
	<path class="st3" d="M146.3,319c0,1.2-0.2,2.4-0.5,3.5c-0.4,1.1-0.9,2.1-1.6,2.9c-0.7,0.9-1.5,1.5-2.5,2c-1,0.5-2.2,0.8-3.5,0.8
		c-1.3,0-2.5-0.3-3.5-0.8c-1-0.5-1.9-1.2-2.5-2c-0.7-0.9-1.2-1.8-1.5-2.9c-0.3-1.1-0.5-2.3-0.5-3.5s0.2-2.4,0.5-3.5s0.9-2.1,1.5-2.9
		c0.7-0.9,1.5-1.5,2.5-2c1-0.5,2.2-0.8,3.5-0.8c1.3,0,2.5,0.3,3.5,0.8c1,0.5,1.9,1.2,2.5,2c0.7,0.9,1.2,1.8,1.6,2.9
		C146.1,316.7,146.3,317.8,146.3,319z M144.9,319c0-1-0.1-2-0.4-3s-0.7-1.8-1.3-2.5c-0.6-0.7-1.3-1.3-2.1-1.8
		c-0.8-0.5-1.8-0.7-2.9-0.7c-1.1,0-2.1,0.2-2.9,0.7c-0.8,0.5-1.5,1.1-2.1,1.8c-0.6,0.7-1,1.6-1.2,2.5c-0.3,1-0.4,1.9-0.4,3
		s0.1,2,0.4,3c0.3,1,0.7,1.8,1.2,2.6c0.6,0.8,1.3,1.3,2.1,1.8c0.8,0.4,1.8,0.7,2.9,0.7c1.1,0,2.1-0.2,2.9-0.7c0.8-0.4,1.5-1,2.1-1.8
		c0.6-0.7,1-1.6,1.3-2.6S144.9,320,144.9,319z"/>
	<path class="st3" d="M165.1,319.4c0,1.2-0.2,2.4-0.5,3.4c-0.4,1.1-0.9,2-1.6,2.8c-0.7,0.8-1.5,1.4-2.5,1.9c-1,0.5-2.1,0.7-3.4,0.7
		c-1.4,0-2.7-0.3-3.8-0.9c-1.1-0.6-1.9-1.5-2.5-2.6v10.1h-1.4v-24.6h1.4v2.7c0.6-1,1.4-1.8,2.5-2.3c1.1-0.5,2.2-0.8,3.4-0.8
		c1.4,0,2.6,0.3,3.7,0.8c1,0.5,1.9,1.2,2.6,2.1c0.7,0.9,1.2,1.9,1.6,3C165,316.8,165.1,318.1,165.1,319.4z M163.7,319.3
		c0-1-0.1-2-0.4-2.9s-0.6-1.9-1.2-2.7c-0.6-0.8-1.3-1.4-2.2-1.9c-0.9-0.5-2-0.7-3.3-0.7c-0.7,0-1.4,0.1-2,0.4s-1.3,0.6-1.8,1
		s-1,0.9-1.3,1.5c-0.3,0.6-0.5,1.2-0.5,1.8v6c0,0.8,0.2,1.6,0.5,2.2c0.3,0.7,0.8,1.2,1.3,1.7c0.6,0.5,1.2,0.8,1.9,1.1
		c0.7,0.2,1.5,0.4,2.3,0.4c1.1,0,2.1-0.2,2.9-0.6c0.8-0.4,1.5-1,2.1-1.7c0.6-0.7,1-1.5,1.3-2.5C163.5,321.3,163.7,320.4,163.7,319.3
		z"/>
	<path class="st3" d="M168.2,327.8v-24.6h1.4v24.6H168.2z"/>
	<path class="st3" d="M185.8,326.5c-1.3,1.2-3,1.7-5,1.7c-1.3,0-2.4-0.2-3.4-0.7c-1-0.5-1.8-1.1-2.5-1.9c-0.7-0.8-1.2-1.7-1.6-2.8
		c-0.4-1.1-0.5-2.2-0.5-3.4c0-1.3,0.2-2.5,0.5-3.7c0.3-1.1,0.9-2.2,1.6-3c0.7-0.9,1.6-1.6,2.6-2.1c1-0.5,2.3-0.8,3.7-0.8
		c0.9,0,1.8,0.1,2.6,0.4c0.8,0.3,1.5,0.7,2.1,1.2c0.6,0.5,1.1,1.1,1.5,1.9c0.4,0.7,0.7,1.6,0.8,2.5l-13.8,5c0.1,0.9,0.3,1.7,0.7,2.4
		s0.8,1.4,1.3,2c0.5,0.6,1.2,1,1.9,1.3c0.8,0.3,1.6,0.5,2.6,0.5c0.8,0,1.5-0.1,2.2-0.4c0.7-0.3,1.3-0.6,1.8-1.1c0.5-0.5,1-1,1.3-1.7
		c0.3-0.6,0.5-1.4,0.6-2.2h1.4C187.9,323.7,187.1,325.3,185.8,326.5z M184.6,312.1c-1-0.7-2.1-1.1-3.5-1.1c-1.2,0-2.2,0.2-3.1,0.7
		c-0.9,0.4-1.6,1-2.1,1.8s-1,1.6-1.3,2.6c-0.3,1-0.4,2-0.4,3.1v0.6l12.4-4.5C186.2,313.9,185.6,312.9,184.6,312.1z"/>
	<path class="st3" d="M226,327.8v-4c-0.4,1.5-1.2,2.6-2.3,3.3s-2.4,1.1-3.9,1.1c-1.7,0-3.1-0.4-4.1-1.3c-1.1-0.9-1.7-2.1-2-3.6
		c-0.4,1.6-1.1,2.8-2.2,3.7c-1.1,0.8-2.5,1.2-4.2,1.2c-1.9,0-3.5-0.6-4.6-1.7c-1.1-1.1-1.7-2.7-1.7-4.6v-11.7h1.4v11.3
		c0,1.6,0.4,3,1.3,4s2.2,1.5,3.9,1.5c1,0,1.8-0.2,2.6-0.6c0.7-0.4,1.4-0.9,1.8-1.5c0.5-0.6,0.9-1.4,1.1-2.2c0.3-0.8,0.4-1.7,0.4-2.6
		v-9.9h1.4v11.3c0,1.6,0.4,3,1.3,4s2.1,1.5,3.8,1.5c1,0,1.8-0.2,2.6-0.6c0.8-0.4,1.4-0.9,1.9-1.5c0.5-0.6,0.9-1.4,1.1-2.2
		c0.3-0.8,0.4-1.7,0.4-2.6v-9.9h1.4v17.6H226z"/>
	<path class="st3" d="M243.7,327.8v-11.3c0-1.6-0.4-3-1.3-4c-0.9-1-2.2-1.5-3.8-1.5c-1,0-1.8,0.2-2.6,0.6c-0.7,0.4-1.4,0.9-1.9,1.5
		c-0.5,0.6-0.9,1.4-1.1,2.2c-0.3,0.8-0.4,1.7-0.4,2.6v9.9h-1.4v-24.6h1.4v11.1c0.5-1.5,1.2-2.6,2.4-3.3c1.1-0.8,2.4-1.1,3.9-1.1
		c1.9,0,3.5,0.6,4.6,1.7c1.1,1.1,1.7,2.7,1.7,4.6v11.7H243.7z"/>
	<path class="st3" d="M264.5,319c0,1.2-0.2,2.4-0.5,3.5c-0.4,1.1-0.9,2.1-1.6,2.9c-0.7,0.9-1.5,1.5-2.5,2c-1,0.5-2.2,0.8-3.5,0.8
		c-1.3,0-2.5-0.3-3.5-0.8c-1-0.5-1.9-1.2-2.5-2c-0.7-0.9-1.2-1.8-1.5-2.9c-0.3-1.1-0.5-2.3-0.5-3.5s0.2-2.4,0.5-3.5s0.9-2.1,1.5-2.9
		c0.7-0.9,1.5-1.5,2.5-2c1-0.5,2.2-0.8,3.5-0.8c1.3,0,2.5,0.3,3.5,0.8c1,0.5,1.9,1.2,2.5,2c0.7,0.9,1.2,1.8,1.6,2.9
		C264.3,316.7,264.5,317.8,264.5,319z M263,319c0-1-0.1-2-0.4-3s-0.7-1.8-1.3-2.5c-0.6-0.7-1.3-1.3-2.1-1.8
		c-0.8-0.5-1.8-0.7-2.9-0.7c-1.1,0-2.1,0.2-2.9,0.7c-0.8,0.5-1.5,1.1-2.1,1.8c-0.6,0.7-1,1.6-1.2,2.5c-0.3,1-0.4,1.9-0.4,3
		s0.1,2,0.4,3c0.3,1,0.7,1.8,1.2,2.6c0.6,0.8,1.3,1.3,2.1,1.8c0.8,0.4,1.8,0.7,2.9,0.7c1.1,0,2.1-0.2,2.9-0.7c0.8-0.4,1.5-1,2.1-1.8
		c0.6-0.7,1-1.6,1.3-2.6S263,320,263,319z"/>
	<path class="st3" d="M44,368.8v-4c-0.4,1.5-1.2,2.6-2.3,3.3s-2.4,1.1-3.9,1.1c-1.7,0-3.1-0.4-4.1-1.3c-1.1-0.9-1.7-2.1-2-3.6
		c-0.4,1.6-1.1,2.8-2.2,3.7c-1.1,0.8-2.5,1.2-4.2,1.2c-1.9,0-3.5-0.6-4.6-1.7c-1.1-1.1-1.7-2.7-1.7-4.6v-11.7h1.4v11.3
		c0,1.6,0.4,3,1.3,4s2.2,1.5,3.9,1.5c1,0,1.8-0.2,2.6-0.6c0.7-0.4,1.4-0.9,1.8-1.5c0.5-0.6,0.9-1.4,1.1-2.2c0.3-0.8,0.4-1.7,0.4-2.6
		v-9.9h1.4v11.3c0,1.6,0.4,3,1.3,4s2.1,1.5,3.8,1.5c1,0,1.8-0.2,2.6-0.6c0.8-0.4,1.4-0.9,1.9-1.5c0.5-0.6,0.9-1.4,1.1-2.2
		c0.3-0.8,0.4-1.7,0.4-2.6v-9.9h1.4v17.6H44z"/>
	<path class="st3" d="M62.8,368.8v-3.1c-0.6,1.1-1.4,2-2.5,2.6c-1.1,0.6-2.3,0.9-3.8,0.9c-1.3,0-2.4-0.2-3.4-0.7
		c-1-0.5-1.8-1.1-2.5-1.9c-0.7-0.8-1.2-1.7-1.6-2.8c-0.4-1.1-0.5-2.2-0.5-3.4c0-1.3,0.2-2.5,0.5-3.6s0.9-2.2,1.6-3
		c0.7-0.9,1.6-1.6,2.6-2.1c1-0.5,2.3-0.8,3.7-0.8c1.2,0,2.4,0.3,3.4,0.8c1.1,0.5,1.9,1.3,2.5,2.3v-2.7h1.4v17.6H62.8z M62.8,356.7
		c0-0.7-0.2-1.3-0.5-1.9c-0.3-0.6-0.8-1.1-1.3-1.5s-1.2-0.8-1.8-1s-1.4-0.4-2-0.4c-1.3,0-2.4,0.2-3.3,0.7c-0.9,0.5-1.6,1.1-2.2,1.9
		c-0.6,0.8-1,1.7-1.2,2.7c-0.2,1-0.4,2-0.4,2.9c0,1,0.1,2,0.4,2.9c0.3,0.9,0.7,1.7,1.3,2.5c0.6,0.7,1.3,1.3,2.1,1.7
		c0.8,0.4,1.8,0.6,2.9,0.6c0.8,0,1.6-0.1,2.3-0.4c0.7-0.2,1.4-0.6,1.9-1.1c0.6-0.5,1-1,1.3-1.7c0.3-0.7,0.5-1.4,0.5-2.2V356.7z"/>
	<path class="st3" d="M80.5,368.8v-11.3c0-1.6-0.4-3-1.3-4c-0.9-1-2.2-1.5-3.8-1.5c-1,0-1.8,0.2-2.6,0.6c-0.7,0.4-1.4,0.9-1.9,1.5
		c-0.5,0.6-0.9,1.4-1.1,2.2c-0.3,0.8-0.4,1.7-0.4,2.6v9.9H68v-17.6h1.4v4.1c0.5-1.5,1.2-2.6,2.4-3.3c1.1-0.8,2.4-1.1,3.9-1.1
		c1.9,0,3.5,0.6,4.6,1.7c1.1,1.1,1.7,2.7,1.7,4.6v11.7H80.5z"/>
	<path class="st3" d="M87.1,352.3v16.5h-1.4v-16.5h-1.8v-1.1h1.8v-4.5l1.4-1.6v6.1h1.8v1.1H87.1z"/>
	<path class="st3" d="M101.9,352.3v16.5h-1.4v-16.5h-1.8v-1.1h1.8v-4.5l1.4-1.6v6.1h1.8v1.1H101.9z"/>
	<path class="st3" d="M121.3,360c0,1.2-0.2,2.4-0.5,3.5c-0.4,1.1-0.9,2.1-1.6,2.9c-0.7,0.9-1.5,1.5-2.5,2c-1,0.5-2.2,0.8-3.5,0.8
		c-1.3,0-2.5-0.3-3.5-0.8c-1-0.5-1.9-1.2-2.5-2c-0.7-0.9-1.2-1.8-1.5-2.9c-0.3-1.1-0.5-2.3-0.5-3.5s0.2-2.4,0.5-3.5s0.9-2.1,1.5-2.9
		c0.7-0.9,1.5-1.5,2.5-2c1-0.5,2.2-0.8,3.5-0.8c1.3,0,2.5,0.3,3.5,0.8c1,0.5,1.9,1.2,2.5,2c0.7,0.9,1.2,1.8,1.6,2.9
		C121.1,357.7,121.3,358.8,121.3,360z M119.8,360c0-1-0.1-2-0.4-3s-0.7-1.8-1.3-2.5c-0.6-0.7-1.3-1.3-2.1-1.8
		c-0.8-0.5-1.8-0.7-2.9-0.7c-1.1,0-2.1,0.2-2.9,0.7c-0.8,0.5-1.5,1.1-2.1,1.8c-0.6,0.7-1,1.6-1.2,2.5c-0.3,1-0.4,1.9-0.4,3
		s0.1,2,0.4,3c0.3,1,0.7,1.8,1.2,2.6c0.6,0.8,1.3,1.3,2.1,1.8c0.8,0.4,1.8,0.7,2.9,0.7c1.1,0,2.1-0.2,2.9-0.7c0.8-0.4,1.5-1,2.1-1.8
		c0.6-0.7,1-1.6,1.3-2.6S119.8,361,119.8,360z"/>
	<path class="st3" d="M146.6,368.8v-11.3c0-1.6-0.4-3-1.3-4c-0.9-1-2.2-1.5-3.8-1.5c-1,0-1.8,0.2-2.6,0.6c-0.7,0.4-1.4,0.9-1.9,1.5
		c-0.5,0.6-0.9,1.4-1.1,2.2c-0.3,0.8-0.4,1.7-0.4,2.6v9.9h-1.4v-24.6h1.4v11.1c0.5-1.5,1.2-2.6,2.4-3.3c1.1-0.8,2.4-1.1,3.9-1.1
		c1.9,0,3.5,0.6,4.6,1.7c1.1,1.1,1.7,2.7,1.7,4.6v11.7H146.6z"/>
	<path class="st3" d="M164.2,367.5c-1.3,1.2-3,1.7-5,1.7c-1.3,0-2.4-0.2-3.4-0.7c-1-0.5-1.8-1.1-2.5-1.9c-0.7-0.8-1.2-1.7-1.6-2.8
		c-0.4-1.1-0.5-2.2-0.5-3.4c0-1.3,0.2-2.5,0.5-3.7c0.3-1.1,0.9-2.2,1.6-3c0.7-0.9,1.6-1.6,2.6-2.1c1-0.5,2.3-0.8,3.7-0.8
		c0.9,0,1.8,0.1,2.6,0.4c0.8,0.3,1.5,0.7,2.1,1.2c0.6,0.5,1.1,1.1,1.5,1.9c0.4,0.7,0.7,1.6,0.8,2.5l-13.8,5c0.1,0.9,0.3,1.7,0.7,2.4
		s0.8,1.4,1.3,2c0.5,0.6,1.2,1,1.9,1.3c0.8,0.3,1.6,0.5,2.6,0.5c0.8,0,1.5-0.1,2.2-0.4c0.7-0.3,1.3-0.6,1.8-1.1c0.5-0.5,1-1,1.3-1.7
		c0.3-0.6,0.5-1.4,0.6-2.2h1.4C166.3,364.7,165.6,366.3,164.2,367.5z M163.1,353.1c-1-0.7-2.1-1.1-3.5-1.1c-1.2,0-2.2,0.2-3.1,0.7
		c-0.9,0.4-1.6,1-2.1,1.8s-1,1.6-1.3,2.6c-0.3,1-0.4,2-0.4,3.1v0.6l12.4-4.5C164.7,354.9,164,353.9,163.1,353.1z"/>
	<path class="st3" d="M169.7,368.8v-24.6h1.4v24.6H169.7z"/>
	<path class="st3" d="M190.5,360.3c0,1.2-0.2,2.4-0.5,3.4c-0.4,1.1-0.9,2-1.6,2.8c-0.7,0.8-1.5,1.4-2.5,1.9c-1,0.5-2.1,0.7-3.4,0.7
		c-1.4,0-2.7-0.3-3.8-0.9c-1.1-0.6-1.9-1.5-2.5-2.6v10.1h-1.4v-24.6h1.4v2.7c0.6-1,1.4-1.8,2.5-2.3c1.1-0.5,2.2-0.8,3.4-0.8
		c1.4,0,2.6,0.3,3.7,0.8c1,0.5,1.9,1.2,2.6,2.1c0.7,0.9,1.2,1.9,1.6,3C190.3,357.8,190.5,359,190.5,360.3z M189.1,360.3
		c0-1-0.1-2-0.4-2.9s-0.6-1.9-1.2-2.7c-0.6-0.8-1.3-1.4-2.2-1.9c-0.9-0.5-2-0.7-3.3-0.7c-0.7,0-1.4,0.1-2,0.4s-1.3,0.6-1.8,1
		s-1,0.9-1.3,1.5c-0.3,0.6-0.5,1.2-0.5,1.8v6c0,0.8,0.2,1.6,0.5,2.2c0.3,0.7,0.8,1.2,1.3,1.7c0.6,0.5,1.2,0.8,1.9,1.1
		c0.7,0.2,1.5,0.4,2.3,0.4c1.1,0,2.1-0.2,2.9-0.6c0.8-0.4,1.5-1,2.1-1.7c0.6-0.7,1-1.5,1.3-2.5C188.9,362.3,189.1,361.3,189.1,360.3
		z"/>
	<path class="st3" d="M205.4,344.9c0,0.4-0.1,0.7-0.4,0.9c-0.3,0.2-0.6,0.3-0.9,0.3c-0.3,0-0.6-0.1-0.9-0.3s-0.4-0.5-0.4-0.9
		c0-0.4,0.1-0.7,0.4-0.9c0.3-0.2,0.6-0.3,0.9-0.3c0.3,0,0.6,0.1,0.9,0.3C205.2,344.2,205.4,344.5,205.4,344.9z M203.3,368.8v-17.6
		h1.4v17.6H203.3z"/>
	<path class="st3" d="M221,368.8v-11.3c0-1.6-0.4-3-1.3-4c-0.9-1-2.2-1.5-3.8-1.5c-1,0-1.8,0.2-2.6,0.6c-0.7,0.4-1.4,0.9-1.9,1.5
		c-0.5,0.6-0.9,1.4-1.1,2.2c-0.3,0.8-0.4,1.7-0.4,2.6v9.9h-1.4v-17.6h1.4v4.1c0.5-1.5,1.2-2.6,2.4-3.3c1.1-0.8,2.4-1.1,3.9-1.1
		c1.9,0,3.5,0.6,4.6,1.7c1.1,1.1,1.7,2.7,1.7,4.6v11.7H221z"/>
	<path class="st3" d="M249.5,368.8v-3.1c-0.6,1.1-1.4,2-2.5,2.6c-1.1,0.6-2.3,0.9-3.8,0.9c-1.3,0-2.4-0.2-3.4-0.7
		c-1-0.5-1.8-1.1-2.5-1.9c-0.7-0.8-1.2-1.7-1.6-2.8c-0.4-1.1-0.5-2.2-0.5-3.4c0-1.3,0.2-2.5,0.5-3.6s0.9-2.2,1.6-3
		c0.7-0.9,1.6-1.6,2.6-2.1c1-0.5,2.3-0.8,3.7-0.8c1.2,0,2.4,0.3,3.4,0.8c1.1,0.5,1.9,1.3,2.5,2.3v-2.7h1.4v17.6H249.5z M249.5,356.7
		c0-0.7-0.2-1.3-0.5-1.9c-0.3-0.6-0.8-1.1-1.3-1.5s-1.2-0.8-1.8-1s-1.4-0.4-2-0.4c-1.3,0-2.4,0.2-3.3,0.7c-0.9,0.5-1.6,1.1-2.2,1.9
		c-0.6,0.8-1,1.7-1.2,2.7c-0.2,1-0.4,2-0.4,2.9c0,1,0.1,2,0.4,2.9c0.3,0.9,0.7,1.7,1.3,2.5c0.6,0.7,1.3,1.3,2.1,1.7
		c0.8,0.4,1.8,0.6,2.9,0.6c0.8,0,1.6-0.1,2.3-0.4c0.7-0.2,1.4-0.6,1.9-1.1c0.6-0.5,1-1,1.3-1.7c0.3-0.7,0.5-1.4,0.5-2.2V356.7z"/>
	<path class="st3" d="M29.7,408.5c-1.3,1.2-3,1.7-5,1.7c-1.3,0-2.4-0.2-3.4-0.7c-1-0.5-1.8-1.1-2.5-1.9c-0.7-0.8-1.2-1.7-1.6-2.8
		c-0.4-1.1-0.5-2.2-0.5-3.4c0-1.3,0.2-2.5,0.5-3.7c0.4-1.1,0.9-2.2,1.6-3c0.7-0.9,1.6-1.6,2.6-2.1c1-0.5,2.3-0.8,3.7-0.8
		c0.9,0,1.8,0.1,2.6,0.4c0.8,0.3,1.5,0.7,2.1,1.2c0.6,0.5,1.1,1.1,1.5,1.9c0.4,0.7,0.7,1.6,0.8,2.5h-1.4c-0.2-1.5-0.8-2.7-1.8-3.5
		c-1-0.8-2.2-1.2-3.7-1.2c-1.2,0-2.3,0.2-3.2,0.7c-0.9,0.5-1.6,1.1-2.2,1.8c-0.6,0.8-1,1.6-1.2,2.6c-0.3,1-0.4,2-0.4,3.1
		c0,1,0.1,2,0.4,2.9c0.3,0.9,0.7,1.7,1.2,2.5c0.6,0.7,1.2,1.3,2.1,1.7c0.8,0.4,1.8,0.6,2.9,0.6c0.8,0,1.5-0.1,2.2-0.4
		c0.7-0.3,1.3-0.6,1.8-1.1c0.5-0.5,1-1,1.3-1.7c0.3-0.6,0.5-1.4,0.6-2.2H32C31.8,405.7,31,407.3,29.7,408.5z"/>
	<path class="st3" d="M50.8,401c0,1.2-0.2,2.4-0.5,3.5c-0.4,1.1-0.9,2.1-1.6,2.9c-0.7,0.9-1.5,1.5-2.5,2c-1,0.5-2.2,0.8-3.5,0.8
		c-1.3,0-2.5-0.3-3.5-0.8c-1-0.5-1.9-1.2-2.5-2c-0.7-0.9-1.2-1.8-1.5-2.9c-0.3-1.1-0.5-2.3-0.5-3.5s0.2-2.4,0.5-3.5s0.9-2.1,1.5-2.9
		c0.7-0.9,1.5-1.5,2.5-2c1-0.5,2.2-0.8,3.5-0.8c1.3,0,2.5,0.3,3.5,0.8c1,0.5,1.9,1.2,2.5,2c0.7,0.9,1.2,1.8,1.6,2.9
		C50.6,398.6,50.8,399.8,50.8,401z M49.3,401c0-1-0.1-2-0.4-3s-0.7-1.8-1.3-2.5c-0.6-0.7-1.3-1.3-2.1-1.8c-0.8-0.5-1.8-0.7-2.9-0.7
		c-1.1,0-2.1,0.2-2.9,0.7c-0.8,0.5-1.5,1.1-2.1,1.8c-0.6,0.7-1,1.6-1.2,2.5c-0.3,1-0.4,1.9-0.4,3s0.1,2,0.4,3c0.3,1,0.7,1.8,1.2,2.6
		c0.6,0.8,1.3,1.3,2.1,1.8c0.8,0.4,1.8,0.7,2.9,0.7c1.1,0,2.1-0.2,2.9-0.7c0.8-0.4,1.5-1,2.1-1.8c0.6-0.7,1-1.6,1.3-2.6
		S49.3,402,49.3,401z"/>
	<path class="st3" d="M66.4,409.8v-11.3c0-1.6-0.4-3-1.3-4c-0.9-1-2.2-1.5-3.8-1.5c-1,0-1.8,0.2-2.6,0.6c-0.7,0.4-1.4,0.9-1.9,1.5
		c-0.5,0.6-0.9,1.4-1.1,2.2c-0.3,0.8-0.4,1.7-0.4,2.6v9.9h-1.4v-17.6h1.4v4.1c0.5-1.5,1.2-2.6,2.4-3.3c1.1-0.8,2.4-1.1,3.9-1.1
		c1.9,0,3.5,0.6,4.6,1.7c1.1,1.1,1.7,2.7,1.7,4.6v11.7H66.4z"/>
	<path class="st3" d="M84.3,405.1c0,0.9-0.2,1.7-0.6,2.4c-0.4,0.6-0.9,1.2-1.6,1.6s-1.4,0.7-2.2,0.9s-1.6,0.3-2.4,0.3
		c-2.3,0-4.1-0.5-5.4-1.5c-1.3-1-1.9-2.6-1.9-4.8h1.4c0,1.8,0.5,3.1,1.6,4c1,0.9,2.5,1.3,4.4,1.3c0.6,0,1.2-0.1,1.8-0.2
		c0.6-0.1,1.2-0.4,1.7-0.6c0.5-0.3,0.9-0.7,1.3-1.2c0.3-0.5,0.5-1.1,0.5-1.7c0-0.7-0.2-1.3-0.5-1.7c-0.3-0.4-0.7-0.8-1.3-1.1
		c-0.5-0.3-1.1-0.5-1.8-0.7c-0.7-0.2-1.4-0.3-2.2-0.5c-0.8-0.2-1.6-0.4-2.3-0.6c-0.7-0.2-1.4-0.5-2-0.8c-0.6-0.3-1-0.8-1.4-1.3
		c-0.3-0.6-0.5-1.3-0.5-2.2c0-0.6,0.1-1.1,0.4-1.7c0.3-0.5,0.6-1,1.2-1.5c0.5-0.4,1.2-0.8,2-1s1.7-0.4,2.8-0.4c1,0,1.9,0.1,2.7,0.3
		c0.8,0.2,1.5,0.5,2.1,1c0.6,0.4,1,1,1.4,1.7c0.3,0.7,0.5,1.6,0.5,2.5h-1.4c0-1.6-0.5-2.8-1.5-3.5c-1-0.7-2.2-1.1-3.8-1.1
		c-1.1,0-2,0.1-2.6,0.4c-0.6,0.3-1.1,0.6-1.5,1c-0.3,0.4-0.5,0.8-0.6,1.2c-0.1,0.4-0.1,0.7-0.1,0.8c0,0.8,0.2,1.4,0.7,1.9
		c0.4,0.5,1,0.8,1.7,1.1c0.7,0.3,1.4,0.5,2.1,0.6c0.8,0.1,1.4,0.3,2,0.5c0.7,0.2,1.3,0.4,2,0.6c0.7,0.2,1.2,0.5,1.8,0.8
		s0.9,0.8,1.2,1.3C84.2,403.6,84.3,404.3,84.3,405.1z"/>
	<path class="st3" d="M88.4,393.3v16.5h-1.4v-16.5h-1.8v-1.1h1.8v-4.5l1.4-1.6v6.1h1.8v1.1H88.4z"/>
	<path class="st3" d="M99.4,393c-1,0-1.8,0.2-2.6,0.6c-0.7,0.4-1.4,0.9-1.9,1.5c-0.5,0.6-0.9,1.4-1.1,2.2c-0.3,0.8-0.4,1.7-0.4,2.6
		v9.9H92v-17.6h1.4v4.1c0.5-1.5,1.2-2.6,2.4-3.3c1.1-0.8,2.4-1.1,3.9-1.1c0.1,0,0.2,0,0.3,0s0.2,0,0.3,0L99.4,393z"/>
	<path class="st3" d="M114.8,409.8v-4c-0.5,1.5-1.2,2.6-2.4,3.3c-1.1,0.7-2.4,1.1-4,1.1c-1.9,0-3.5-0.6-4.6-1.7
		c-1.1-1.1-1.7-2.7-1.7-4.6v-11.7h1.4v11.3c0,1.6,0.4,3,1.3,4s2.2,1.5,3.9,1.5c1,0,1.8-0.2,2.6-0.6c0.7-0.4,1.4-0.9,1.8-1.5
		c0.5-0.6,0.9-1.4,1.1-2.2c0.3-0.8,0.4-1.7,0.4-2.6v-9.9h1.5v17.6H114.8z"/>
	<path class="st3" d="M132.4,408.5c-1.3,1.2-3,1.7-5,1.7c-1.3,0-2.4-0.2-3.4-0.7c-1-0.5-1.8-1.1-2.5-1.9c-0.7-0.8-1.2-1.7-1.6-2.8
		c-0.4-1.1-0.5-2.2-0.5-3.4c0-1.3,0.2-2.5,0.5-3.7c0.4-1.1,0.9-2.2,1.6-3c0.7-0.9,1.6-1.6,2.6-2.1c1-0.5,2.3-0.8,3.7-0.8
		c0.9,0,1.8,0.1,2.6,0.4c0.8,0.3,1.5,0.7,2.1,1.2c0.6,0.5,1.1,1.1,1.5,1.9c0.4,0.7,0.7,1.6,0.8,2.5h-1.4c-0.2-1.5-0.8-2.7-1.8-3.5
		c-1-0.8-2.2-1.2-3.7-1.2c-1.2,0-2.3,0.2-3.2,0.7c-0.9,0.5-1.6,1.1-2.2,1.8c-0.6,0.8-1,1.6-1.2,2.6c-0.3,1-0.4,2-0.4,3.1
		c0,1,0.1,2,0.4,2.9c0.3,0.9,0.7,1.7,1.2,2.5c0.6,0.7,1.2,1.3,2.1,1.7c0.8,0.4,1.8,0.6,2.9,0.6c0.8,0,1.5-0.1,2.2-0.4
		c0.7-0.3,1.3-0.6,1.8-1.1c0.5-0.5,1-1,1.3-1.7c0.3-0.6,0.5-1.4,0.6-2.2h1.4C134.5,405.7,133.7,407.3,132.4,408.5z"/>
	<path class="st3" d="M139.2,393.3v16.5h-1.4v-16.5H136v-1.1h1.8v-4.5l1.4-1.6v6.1h1.8v1.1H139.2z"/>
	<path class="st3" d="M144.9,385.8c0,0.4-0.1,0.7-0.4,0.9c-0.3,0.2-0.6,0.3-0.9,0.3c-0.3,0-0.6-0.1-0.9-0.3s-0.4-0.5-0.4-0.9
		c0-0.4,0.1-0.7,0.4-0.9c0.3-0.2,0.6-0.3,0.9-0.3c0.3,0,0.6,0.1,0.9,0.3C144.8,385.2,144.9,385.5,144.9,385.8z M142.9,409.8v-17.6
		h1.4v17.6H142.9z"/>
	<path class="st3" d="M154.1,409.8h-1.6l-6.3-17.6h1.6l5.5,15.3l5.5-15.3h1.5L154.1,409.8z"/>
	<path class="st3" d="M174.7,408.5c-1.3,1.2-3,1.7-5,1.7c-1.3,0-2.4-0.2-3.4-0.7c-1-0.5-1.8-1.1-2.5-1.9c-0.7-0.8-1.2-1.7-1.6-2.8
		c-0.4-1.1-0.5-2.2-0.5-3.4c0-1.3,0.2-2.5,0.5-3.7c0.3-1.1,0.9-2.2,1.6-3c0.7-0.9,1.6-1.6,2.6-2.1c1-0.5,2.3-0.8,3.7-0.8
		c0.9,0,1.8,0.1,2.6,0.4c0.8,0.3,1.5,0.7,2.1,1.2c0.6,0.5,1.1,1.1,1.5,1.9c0.4,0.7,0.7,1.6,0.8,2.5l-13.8,5c0.1,0.9,0.3,1.7,0.7,2.4
		s0.8,1.4,1.3,2c0.5,0.6,1.2,1,1.9,1.3c0.8,0.3,1.6,0.5,2.6,0.5c0.8,0,1.5-0.1,2.2-0.4c0.7-0.3,1.3-0.6,1.8-1.1c0.5-0.5,1-1,1.3-1.7
		c0.3-0.6,0.5-1.4,0.6-2.2h1.4C176.8,405.7,176,407.3,174.7,408.5z M173.5,394.1c-1-0.7-2.1-1.1-3.5-1.1c-1.2,0-2.2,0.2-3.1,0.7
		c-0.9,0.4-1.6,1-2.1,1.8s-1,1.6-1.3,2.6c-0.3,1-0.4,2-0.4,3.1v0.6l12.4-4.5C175.1,395.8,174.5,394.8,173.5,394.1z"/>
	<path class="st3" d="M214.9,409.8v-4c-0.4,1.5-1.2,2.6-2.3,3.3s-2.4,1.1-3.9,1.1c-1.7,0-3.1-0.4-4.1-1.3c-1.1-0.9-1.7-2.1-2-3.6
		c-0.4,1.6-1.1,2.8-2.2,3.7c-1.1,0.8-2.5,1.2-4.2,1.2c-1.9,0-3.5-0.6-4.6-1.7c-1.1-1.1-1.7-2.7-1.7-4.6v-11.7h1.4v11.3
		c0,1.6,0.4,3,1.3,4s2.2,1.5,3.9,1.5c1,0,1.8-0.2,2.6-0.6c0.7-0.4,1.4-0.9,1.8-1.5c0.5-0.6,0.9-1.4,1.1-2.2c0.3-0.8,0.4-1.7,0.4-2.6
		v-9.9h1.4v11.3c0,1.6,0.4,3,1.3,4s2.1,1.5,3.8,1.5c1,0,1.8-0.2,2.6-0.6c0.8-0.4,1.4-0.9,1.9-1.5c0.5-0.6,0.9-1.4,1.1-2.2
		c0.3-0.8,0.4-1.7,0.4-2.6v-9.9h1.4v17.6H214.9z"/>
	<path class="st3" d="M233.7,409.8v-3.1c-0.6,1.1-1.4,2-2.5,2.6c-1.1,0.6-2.3,0.9-3.8,0.9c-1.3,0-2.4-0.2-3.4-0.7
		c-1-0.5-1.8-1.1-2.5-1.9c-0.7-0.8-1.2-1.7-1.6-2.8c-0.4-1.1-0.5-2.2-0.5-3.4c0-1.3,0.2-2.5,0.5-3.6s0.9-2.2,1.6-3
		c0.7-0.9,1.6-1.6,2.6-2.1c1-0.5,2.3-0.8,3.7-0.8c1.2,0,2.4,0.3,3.4,0.8c1.1,0.5,1.9,1.3,2.5,2.3v-2.7h1.4v17.6H233.7z M233.7,397.7
		c0-0.7-0.2-1.3-0.5-1.9c-0.3-0.6-0.8-1.1-1.3-1.5s-1.2-0.8-1.8-1s-1.4-0.4-2-0.4c-1.3,0-2.4,0.2-3.3,0.7c-0.9,0.5-1.6,1.1-2.2,1.9
		c-0.6,0.8-1,1.7-1.2,2.7c-0.2,1-0.4,2-0.4,2.9c0,1,0.1,2,0.4,2.9c0.3,0.9,0.7,1.7,1.3,2.5c0.6,0.7,1.3,1.3,2.1,1.7
		c0.8,0.4,1.8,0.6,2.9,0.6c0.8,0,1.6-0.1,2.3-0.4c0.7-0.2,1.4-0.6,1.9-1.1c0.6-0.5,1-1,1.3-1.7c0.3-0.7,0.5-1.4,0.5-2.2V397.7z"/>
	<path class="st3" d="M250.9,415.5c-1.2,1.2-3.1,1.9-5.7,1.9c-0.9,0-1.8-0.1-2.6-0.3s-1.6-0.5-2.2-1c-0.6-0.4-1.2-1-1.6-1.7
		c-0.4-0.7-0.6-1.6-0.7-2.6h1.4c0,0.8,0.2,1.5,0.5,2c0.3,0.6,0.7,1,1.2,1.4s1.1,0.6,1.7,0.8c0.6,0.2,1.3,0.3,2.1,0.3
		c2,0,3.5-0.5,4.6-1.5s1.6-2.5,1.6-4.5l0-4.5c-0.5,1.5-1.2,2.6-2.4,3.3c-1.1,0.7-2.4,1.1-4,1.1c-1.9,0-3.5-0.6-4.6-1.7
		c-1.1-1.1-1.7-2.7-1.7-4.6v-11.7h1.4v11.3c0,1.6,0.4,3,1.3,4s2.2,1.5,3.9,1.5c1,0,1.8-0.2,2.6-0.6c0.7-0.4,1.4-0.9,1.8-1.5
		c0.5-0.6,0.9-1.4,1.1-2.2c0.3-0.8,0.4-1.7,0.4-2.6v-9.9h1.4v18C252.8,412.5,252.1,414.3,250.9,415.5z"/>
</g>
<g>
	<path class="st3" d="M471.4,265v8.2h10.9v2.6h-10.9v11h-3.2v-24.6h15.1v2.8H471.4z"/>
	<path class="st3" d="M491.6,271.2c-0.8,0-1.6,0.2-2.2,0.5c-0.6,0.3-1.1,0.8-1.6,1.3c-0.4,0.5-0.7,1.2-0.9,1.9
		c-0.2,0.7-0.3,1.4-0.3,2.2v9.7h-3v-17.6h3v3.4c0.5-1.3,1.3-2.3,2.4-2.9c1-0.6,2.3-0.9,3.7-0.9c0.1,0,0.3,0,0.4,0s0.3,0,0.4,0
		L491.6,271.2z"/>
	<path class="st3" d="M507.1,283.3c-0.4,0.8-1,1.6-1.7,2.1c-0.7,0.6-1.5,1-2.4,1.3c-0.9,0.3-1.9,0.5-2.9,0.5c-1.3,0-2.5-0.2-3.5-0.7
		c-1-0.5-1.9-1.1-2.7-1.9c-0.7-0.8-1.3-1.8-1.7-2.9s-0.6-2.3-0.6-3.5c0-1.3,0.2-2.6,0.6-3.7c0.4-1.1,0.9-2.2,1.7-3
		c0.7-0.9,1.6-1.5,2.7-2c1.1-0.5,2.3-0.7,3.7-0.7c1,0,1.9,0.1,2.8,0.4c0.9,0.3,1.7,0.7,2.3,1.2c0.7,0.5,1.2,1.2,1.7,2
		c0.4,0.8,0.7,1.7,0.8,2.7l-13.3,4.8c0.1,0.7,0.3,1.4,0.6,2c0.3,0.6,0.6,1.2,1.1,1.6c0.4,0.5,1,0.8,1.6,1.1c0.6,0.3,1.3,0.4,2.2,0.4
		c0.7,0,1.3-0.1,1.9-0.3c0.6-0.2,1.1-0.5,1.5-0.9c0.4-0.4,0.8-0.9,1.1-1.4c0.3-0.6,0.4-1.2,0.5-1.9h2.8
		C507.8,281.5,507.6,282.4,507.1,283.3z M503.3,271.9c-0.8-0.6-1.7-0.8-2.9-0.8c-1,0-1.8,0.2-2.5,0.5c-0.7,0.4-1.3,0.8-1.8,1.4
		c-0.5,0.6-0.8,1.3-1.1,2.1c-0.2,0.8-0.4,1.6-0.4,2.5v0.5l10.2-3.7C504.6,273.3,504.1,272.5,503.3,271.9z"/>
	<path class="st3" d="M525.8,283.3c-0.4,0.8-1,1.6-1.7,2.1c-0.7,0.6-1.5,1-2.4,1.3c-0.9,0.3-1.9,0.5-2.9,0.5c-1.3,0-2.5-0.2-3.5-0.7
		c-1-0.5-1.9-1.1-2.7-1.9c-0.7-0.8-1.3-1.8-1.7-2.9s-0.6-2.3-0.6-3.5c0-1.3,0.2-2.6,0.6-3.7c0.4-1.1,0.9-2.2,1.7-3
		c0.7-0.9,1.6-1.5,2.7-2c1.1-0.5,2.3-0.7,3.7-0.7c1,0,1.9,0.1,2.8,0.4c0.9,0.3,1.7,0.7,2.3,1.2c0.7,0.5,1.2,1.2,1.7,2
		c0.4,0.8,0.7,1.7,0.8,2.7l-13.3,4.8c0.1,0.7,0.3,1.4,0.6,2c0.3,0.6,0.6,1.2,1.1,1.6c0.4,0.5,1,0.8,1.6,1.1c0.6,0.3,1.3,0.4,2.2,0.4
		c0.7,0,1.3-0.1,1.9-0.3c0.6-0.2,1.1-0.5,1.5-0.9c0.4-0.4,0.8-0.9,1.1-1.4c0.3-0.6,0.4-1.2,0.5-1.9h2.8
		C526.5,281.5,526.2,282.4,525.8,283.3z M521.9,271.9c-0.8-0.6-1.7-0.8-2.9-0.8c-1,0-1.8,0.2-2.5,0.5c-0.7,0.4-1.3,0.8-1.8,1.4
		c-0.5,0.6-0.8,1.3-1.1,2.1c-0.2,0.8-0.4,1.6-0.4,2.5v0.5l10.2-3.7C523.3,273.3,522.7,272.5,521.9,271.9z"/>
	<path class="st3" d="M548,271.2c-0.8,0-1.6,0.2-2.2,0.5c-0.6,0.3-1.1,0.8-1.6,1.3c-0.4,0.5-0.7,1.2-0.9,1.9
		c-0.2,0.7-0.3,1.4-0.3,2.2v9.7h-3v-17.6h3v3.4c0.5-1.3,1.3-2.3,2.4-2.9c1-0.6,2.3-0.9,3.7-0.9c0.1,0,0.3,0,0.4,0s0.3,0,0.4,0
		L548,271.2z"/>
	<path class="st3" d="M563.5,283.3c-0.4,0.8-1,1.6-1.7,2.1c-0.7,0.6-1.5,1-2.4,1.3c-0.9,0.3-1.9,0.5-2.9,0.5c-1.3,0-2.5-0.2-3.5-0.7
		c-1-0.5-1.9-1.1-2.7-1.9c-0.7-0.8-1.3-1.8-1.7-2.9s-0.6-2.3-0.6-3.5c0-1.3,0.2-2.6,0.6-3.7c0.4-1.1,0.9-2.2,1.7-3
		c0.7-0.9,1.6-1.5,2.7-2c1.1-0.5,2.3-0.7,3.7-0.7c1,0,1.9,0.1,2.8,0.4c0.9,0.3,1.7,0.7,2.3,1.2c0.7,0.5,1.2,1.2,1.7,2
		c0.4,0.8,0.7,1.7,0.8,2.7l-13.3,4.8c0.1,0.7,0.3,1.4,0.6,2c0.3,0.6,0.6,1.2,1.1,1.6c0.4,0.5,1,0.8,1.6,1.1c0.6,0.3,1.3,0.4,2.2,0.4
		c0.7,0,1.3-0.1,1.9-0.3c0.6-0.2,1.1-0.5,1.5-0.9c0.4-0.4,0.8-0.9,1.1-1.4c0.3-0.6,0.4-1.2,0.5-1.9h2.8
		C564.2,281.5,564,282.4,563.5,283.3z M559.6,271.9c-0.8-0.6-1.7-0.8-2.9-0.8c-1,0-1.8,0.2-2.5,0.5c-0.7,0.4-1.3,0.8-1.8,1.4
		c-0.5,0.6-0.8,1.3-1.1,2.1c-0.2,0.8-0.4,1.6-0.4,2.5v0.5l10.2-3.7C561,273.3,560.4,272.5,559.6,271.9z"/>
	<path class="st3" d="M581.4,281.9c0,1-0.2,1.9-0.6,2.6s-1,1.2-1.7,1.7c-0.7,0.4-1.5,0.7-2.4,0.9c-0.9,0.2-1.7,0.3-2.6,0.3
		c-1.1,0-2.1-0.1-3.1-0.4c-0.9-0.2-1.8-0.6-2.4-1.1c-0.7-0.5-1.2-1.2-1.6-2c-0.4-0.8-0.6-1.8-0.6-2.9h2.8c0,1.5,0.5,2.6,1.4,3.3
		c0.9,0.7,2.1,1.1,3.6,1.1c0.5,0,1-0.1,1.5-0.2c0.5-0.1,1-0.3,1.4-0.5c0.4-0.2,0.8-0.6,1.1-0.9c0.3-0.4,0.4-0.9,0.4-1.4
		c0-0.6-0.1-1.1-0.4-1.4c-0.3-0.4-0.6-0.7-1.1-0.9c-0.5-0.2-1-0.4-1.6-0.6c-0.6-0.2-1.3-0.3-2.1-0.5c-0.9-0.2-1.8-0.4-2.6-0.6
		c-0.8-0.2-1.5-0.5-2-0.9c-0.6-0.4-1-0.8-1.4-1.4c-0.3-0.6-0.5-1.3-0.5-2.2c0-0.7,0.2-1.4,0.5-2s0.8-1.1,1.4-1.5
		c0.6-0.4,1.3-0.8,2.2-1c0.8-0.2,1.8-0.3,2.8-0.3c1,0,1.9,0.1,2.7,0.3c0.9,0.2,1.6,0.5,2.3,1c0.6,0.4,1.2,1,1.6,1.7
		c0.4,0.7,0.6,1.6,0.6,2.6h-2.7c0-1.3-0.4-2.3-1.3-2.9c-0.8-0.6-1.9-0.9-3.1-0.9c-0.9,0-1.6,0.1-2.1,0.3s-0.9,0.5-1.2,0.8
		c-0.3,0.3-0.5,0.6-0.6,0.9c-0.1,0.3-0.2,0.6-0.2,0.8c0,0.7,0.2,1.2,0.7,1.6s1.1,0.7,1.8,1c0.7,0.2,1.4,0.4,2.2,0.6
		c0.8,0.1,1.4,0.3,1.9,0.4c0.6,0.2,1.3,0.4,1.9,0.6c0.6,0.2,1.1,0.5,1.6,0.9c0.5,0.4,0.9,0.8,1.2,1.3
		C581.3,280.4,581.4,281.1,581.4,281.9z"/>
	<path class="st3" d="M600.6,278c0,1.2-0.2,2.4-0.5,3.5c-0.4,1.1-0.9,2.1-1.6,3c-0.7,0.9-1.6,1.5-2.7,2c-1.1,0.5-2.3,0.8-3.8,0.8
		c-1.4,0-2.7-0.3-3.8-0.8c-1.1-0.5-2-1.2-2.7-2c-0.7-0.9-1.3-1.8-1.6-3c-0.4-1.1-0.5-2.3-0.5-3.5s0.2-2.4,0.5-3.5
		c0.4-1.1,0.9-2.1,1.6-3c0.7-0.9,1.6-1.5,2.7-2c1.1-0.5,2.3-0.8,3.8-0.8c1.4,0,2.7,0.3,3.8,0.8s2,1.2,2.7,2c0.7,0.9,1.3,1.8,1.6,3
		C600.4,275.7,600.6,276.8,600.6,278z M597.6,278c0-0.9-0.1-1.7-0.3-2.5c-0.2-0.8-0.6-1.6-1-2.2c-0.5-0.7-1-1.2-1.7-1.6
		c-0.7-0.4-1.5-0.6-2.5-0.6c-1,0-1.8,0.2-2.5,0.6c-0.7,0.4-1.3,0.9-1.7,1.6s-0.8,1.4-1,2.2c-0.2,0.8-0.3,1.7-0.3,2.5
		c0,0.9,0.1,1.7,0.3,2.5c0.2,0.8,0.6,1.6,1,2.2s1,1.2,1.7,1.6c0.7,0.4,1.5,0.6,2.5,0.6c1,0,1.8-0.2,2.5-0.6c0.7-0.4,1.3-0.9,1.7-1.6
		c0.5-0.6,0.8-1.4,1-2.2C597.5,279.7,597.6,278.9,597.6,278z"/>
	<path class="st3" d="M616,286.8v-3.4c-0.5,1.3-1.3,2.3-2.4,2.9c-1,0.6-2.3,0.9-3.7,0.9c-1.9,0-3.4-0.6-4.5-1.7
		c-1.1-1.1-1.7-2.6-1.7-4.5v-11.9h3v10.7c0,0.7,0.1,1.4,0.3,2s0.4,1.1,0.8,1.6s0.8,0.8,1.3,1c0.5,0.3,1.2,0.4,1.9,0.4
		c0.8,0,1.6-0.2,2.2-0.5c0.6-0.3,1.1-0.8,1.6-1.3c0.4-0.5,0.7-1.2,0.9-1.9s0.3-1.4,0.3-2.2v-9.7h3v17.6H616z"/>
	<path class="st3" d="M630.6,271.2c-0.8,0-1.6,0.2-2.2,0.5c-0.6,0.3-1.1,0.8-1.6,1.3c-0.4,0.5-0.7,1.2-0.9,1.9
		c-0.2,0.7-0.3,1.4-0.3,2.2v9.7h-3v-17.6h3v3.4c0.5-1.3,1.3-2.3,2.4-2.9c1-0.6,2.3-0.9,3.7-0.9c0.1,0,0.3,0,0.4,0s0.3,0,0.4,0
		L630.6,271.2z"/>
	<path class="st3" d="M646.2,283.3c-0.4,0.8-1,1.6-1.7,2.1c-0.7,0.6-1.5,1-2.4,1.3c-0.9,0.3-1.9,0.5-2.9,0.5c-1.3,0-2.5-0.2-3.5-0.7
		c-1-0.5-1.9-1.1-2.7-1.9c-0.7-0.8-1.3-1.8-1.7-2.9s-0.6-2.3-0.6-3.5c0-1.3,0.2-2.6,0.6-3.7c0.4-1.1,1-2.2,1.7-3
		c0.7-0.9,1.7-1.5,2.7-2c1.1-0.5,2.3-0.7,3.7-0.7c1,0,1.9,0.1,2.8,0.4c0.9,0.3,1.7,0.7,2.3,1.2c0.7,0.5,1.2,1.2,1.7,2
		c0.4,0.8,0.7,1.7,0.8,2.7h-2.8c-0.2-1.3-0.7-2.3-1.6-3c-0.9-0.7-1.9-1.1-3.2-1.1c-1.1,0-2,0.2-2.7,0.6c-0.7,0.4-1.3,0.9-1.8,1.6
		c-0.5,0.7-0.8,1.4-1,2.3c-0.2,0.9-0.3,1.8-0.3,2.7c0,0.9,0.1,1.7,0.3,2.5c0.2,0.8,0.5,1.5,1,2.1c0.4,0.6,1,1.1,1.7,1.5
		c0.7,0.4,1.5,0.6,2.5,0.6c0.7,0,1.3-0.1,1.9-0.3c0.6-0.2,1.1-0.5,1.5-0.9c0.4-0.4,0.8-0.9,1.1-1.4c0.3-0.6,0.4-1.2,0.5-1.9h2.8
		C646.9,281.5,646.6,282.4,646.2,283.3z"/>
	<path class="st3" d="M665,283.3c-0.4,0.8-1,1.6-1.7,2.1c-0.7,0.6-1.5,1-2.4,1.3c-0.9,0.3-1.9,0.5-2.9,0.5c-1.3,0-2.5-0.2-3.5-0.7
		c-1-0.5-1.9-1.1-2.7-1.9c-0.7-0.8-1.3-1.8-1.7-2.9s-0.6-2.3-0.6-3.5c0-1.3,0.2-2.6,0.6-3.7c0.4-1.1,0.9-2.2,1.7-3
		c0.7-0.9,1.6-1.5,2.7-2c1.1-0.5,2.3-0.7,3.7-0.7c1,0,1.9,0.1,2.8,0.4c0.9,0.3,1.7,0.7,2.3,1.2c0.7,0.5,1.2,1.2,1.7,2
		c0.4,0.8,0.7,1.7,0.8,2.7l-13.3,4.8c0.1,0.7,0.3,1.4,0.6,2c0.3,0.6,0.6,1.2,1.1,1.6c0.4,0.5,1,0.8,1.6,1.1c0.6,0.3,1.3,0.4,2.2,0.4
		c0.7,0,1.3-0.1,1.9-0.3c0.6-0.2,1.1-0.5,1.5-0.9c0.4-0.4,0.8-0.9,1.1-1.4c0.3-0.6,0.4-1.2,0.5-1.9h2.8
		C665.7,281.5,665.4,282.4,665,283.3z M661.1,271.9c-0.8-0.6-1.7-0.8-2.9-0.8c-1,0-1.8,0.2-2.5,0.5c-0.7,0.4-1.3,0.8-1.8,1.4
		c-0.5,0.6-0.8,1.3-1.1,2.1c-0.2,0.8-0.4,1.6-0.4,2.5v0.5l10.2-3.7C662.5,273.3,661.9,272.5,661.1,271.9z"/>
	<path class="st3" d="M682.9,281.9c0,1-0.2,1.9-0.6,2.6s-1,1.2-1.7,1.7c-0.7,0.4-1.5,0.7-2.4,0.9c-0.9,0.2-1.7,0.3-2.6,0.3
		c-1.1,0-2.1-0.1-3.1-0.4c-0.9-0.2-1.8-0.6-2.4-1.1c-0.7-0.5-1.2-1.2-1.6-2c-0.4-0.8-0.6-1.8-0.6-2.9h2.8c0,1.5,0.5,2.6,1.4,3.3
		c0.9,0.7,2.1,1.1,3.6,1.1c0.5,0,1-0.1,1.5-0.2c0.5-0.1,1-0.3,1.4-0.5c0.4-0.2,0.8-0.6,1.1-0.9c0.3-0.4,0.4-0.9,0.4-1.4
		c0-0.6-0.1-1.1-0.4-1.4c-0.3-0.4-0.6-0.7-1.1-0.9c-0.5-0.2-1-0.4-1.6-0.6c-0.6-0.2-1.3-0.3-2.1-0.5c-0.9-0.2-1.8-0.4-2.6-0.6
		c-0.8-0.2-1.5-0.5-2-0.9c-0.6-0.4-1-0.8-1.4-1.4c-0.3-0.6-0.5-1.3-0.5-2.2c0-0.7,0.2-1.4,0.5-2s0.8-1.1,1.4-1.5
		c0.6-0.4,1.3-0.8,2.2-1c0.8-0.2,1.8-0.3,2.8-0.3c1,0,1.9,0.1,2.7,0.3c0.9,0.2,1.6,0.5,2.3,1c0.6,0.4,1.2,1,1.6,1.7
		c0.4,0.7,0.6,1.6,0.6,2.6h-2.7c0-1.3-0.4-2.3-1.3-2.9c-0.8-0.6-1.9-0.9-3.1-0.9c-0.9,0-1.6,0.1-2.1,0.3s-0.9,0.5-1.2,0.8
		c-0.3,0.3-0.5,0.6-0.6,0.9c-0.1,0.3-0.2,0.6-0.2,0.8c0,0.7,0.2,1.2,0.7,1.6s1.1,0.7,1.8,1c0.7,0.2,1.4,0.4,2.2,0.6
		c0.8,0.1,1.4,0.3,1.9,0.4c0.6,0.2,1.3,0.4,1.9,0.6c0.6,0.2,1.1,0.5,1.6,0.9c0.5,0.4,0.9,0.8,1.2,1.3
		C682.8,280.4,682.9,281.1,682.9,281.9z"/>
	<path class="st3" d="M437.7,304.6v23.2h-1.5v-23.2H432c-0.6,0-1.1,0.1-1.5,0.2s-0.6,0.3-0.8,0.5s-0.3,0.5-0.3,0.8
		c0,0.3-0.1,0.6-0.1,0.8l-1.2-0.5c0-0.4,0.1-0.8,0.2-1.2c0.1-0.4,0.3-0.7,0.6-1c0.3-0.3,0.6-0.5,1.1-0.7s1-0.3,1.7-0.3h14v1.4H437.7
		z"/>
	<path class="st3" d="M457,319c0,1.2-0.2,2.4-0.5,3.5c-0.4,1.1-0.9,2.1-1.6,2.9c-0.7,0.9-1.5,1.5-2.5,2c-1,0.5-2.2,0.8-3.5,0.8
		c-1.3,0-2.5-0.3-3.5-0.8c-1-0.5-1.9-1.2-2.5-2c-0.7-0.9-1.2-1.8-1.5-2.9c-0.3-1.1-0.5-2.3-0.5-3.5s0.2-2.4,0.5-3.5
		c0.3-1.1,0.9-2.1,1.5-2.9c0.7-0.9,1.5-1.5,2.5-2c1-0.5,2.2-0.8,3.5-0.8c1.3,0,2.5,0.3,3.5,0.8c1,0.5,1.9,1.2,2.5,2
		c0.7,0.9,1.2,1.8,1.6,2.9C456.8,316.7,457,317.8,457,319z M455.5,319c0-1-0.1-2-0.4-3c-0.3-1-0.7-1.8-1.3-2.5s-1.3-1.3-2.1-1.8
		c-0.8-0.5-1.8-0.7-2.9-0.7c-1.1,0-2.1,0.2-2.9,0.7c-0.8,0.5-1.5,1.1-2.1,1.8c-0.6,0.7-1,1.6-1.2,2.5c-0.3,1-0.4,1.9-0.4,3
		s0.1,2,0.4,3c0.3,1,0.7,1.8,1.2,2.6c0.6,0.8,1.3,1.3,2.1,1.8c0.8,0.4,1.8,0.7,2.9,0.7c1.1,0,2.1-0.2,2.9-0.7c0.8-0.4,1.5-1,2.1-1.8
		c0.6-0.7,1-1.6,1.3-2.6C455.4,321,455.5,320,455.5,319z"/>
	<path class="st3" d="M494.8,327.8v-11.3c0-1.6-0.4-3-1.3-4c-0.9-1-2.2-1.5-3.9-1.5c-1,0-1.8,0.2-2.6,0.6c-0.7,0.4-1.4,0.9-1.8,1.5
		c-0.5,0.6-0.9,1.4-1.1,2.2c-0.3,0.8-0.4,1.7-0.4,2.6v9.9h-1.4v-11.3c0-1.6-0.4-3-1.3-4c-0.9-1-2.2-1.5-3.9-1.5
		c-1,0-1.8,0.2-2.6,0.6c-0.7,0.4-1.4,0.9-1.9,1.5c-0.5,0.6-0.9,1.4-1.1,2.2c-0.3,0.8-0.4,1.7-0.4,2.6v9.9h-1.4v-17.6h1.4v4.1
		c0.5-1.5,1.2-2.6,2.4-3.3c1.1-0.8,2.4-1.1,3.9-1.1c1.7,0,3.1,0.4,4.1,1.3c1.1,0.9,1.7,2.1,2,3.6c0.4-1.6,1.2-2.9,2.3-3.7
		c1.1-0.8,2.5-1.2,4.2-1.2c1.9,0,3.5,0.6,4.6,1.7c1.1,1.1,1.7,2.7,1.7,4.6v11.7H494.8z"/>
	<path class="st3" d="M512.4,326.5c-1.3,1.2-3,1.7-5,1.7c-1.3,0-2.4-0.2-3.4-0.7c-1-0.5-1.8-1.1-2.5-1.9c-0.7-0.8-1.2-1.7-1.6-2.8
		c-0.4-1.1-0.5-2.2-0.5-3.4c0-1.3,0.2-2.5,0.5-3.7c0.3-1.1,0.9-2.2,1.6-3s1.6-1.6,2.6-2.1c1-0.5,2.3-0.8,3.7-0.8
		c0.9,0,1.8,0.1,2.6,0.4c0.8,0.3,1.5,0.7,2.1,1.2c0.6,0.5,1.1,1.1,1.5,1.9s0.7,1.6,0.8,2.5l-13.8,5c0.1,0.9,0.3,1.7,0.7,2.4
		c0.3,0.8,0.8,1.4,1.3,2c0.5,0.6,1.2,1,1.9,1.3c0.8,0.3,1.6,0.5,2.6,0.5c0.8,0,1.5-0.1,2.2-0.4c0.7-0.3,1.3-0.6,1.8-1.1
		c0.5-0.5,1-1,1.3-1.7c0.3-0.6,0.5-1.4,0.6-2.2h1.4C514.5,323.7,513.7,325.3,512.4,326.5z M511.2,312.1c-1-0.7-2.1-1.1-3.5-1.1
		c-1.2,0-2.2,0.2-3.1,0.7c-0.9,0.4-1.6,1-2.1,1.8c-0.6,0.7-1,1.6-1.3,2.6c-0.3,1-0.4,2-0.4,3.1v0.6l12.4-4.5
		C512.8,313.9,512.2,312.9,511.2,312.1z"/>
	<path class="st3" d="M530.1,326.5c-1.3,1.2-3,1.7-5,1.7c-1.3,0-2.4-0.2-3.4-0.7c-1-0.5-1.8-1.1-2.5-1.9c-0.7-0.8-1.2-1.7-1.6-2.8
		c-0.4-1.1-0.5-2.2-0.5-3.4c0-1.3,0.2-2.5,0.5-3.7c0.3-1.1,0.9-2.2,1.6-3s1.6-1.6,2.6-2.1c1-0.5,2.3-0.8,3.7-0.8
		c0.9,0,1.8,0.1,2.6,0.4c0.8,0.3,1.5,0.7,2.1,1.2s1.1,1.1,1.5,1.9s0.7,1.6,0.8,2.5l-13.8,5c0.1,0.9,0.3,1.7,0.7,2.4
		c0.3,0.8,0.8,1.4,1.3,2c0.5,0.6,1.2,1,1.9,1.3c0.8,0.3,1.6,0.5,2.6,0.5c0.8,0,1.5-0.1,2.2-0.4c0.7-0.3,1.3-0.6,1.8-1.1
		c0.5-0.5,1-1,1.3-1.7c0.3-0.6,0.5-1.4,0.6-2.2h1.4C532.2,323.7,531.5,325.3,530.1,326.5z M529,312.1c-1-0.7-2.1-1.1-3.5-1.1
		c-1.2,0-2.2,0.2-3.1,0.7c-0.9,0.4-1.6,1-2.1,1.8c-0.6,0.7-1,1.6-1.3,2.6c-0.3,1-0.4,2-0.4,3.1v0.6l12.4-4.5
		C530.6,313.9,529.9,312.9,529,312.1z"/>
	<path class="st3" d="M537,311.4v16.5h-1.4v-16.5h-1.8v-1.1h1.8v-4.5l1.4-1.6v6.1h1.8v1.1H537z"/>
	<path class="st3" d="M566.1,319.4c0,1.2-0.2,2.4-0.5,3.4c-0.4,1.1-0.9,2-1.6,2.8c-0.7,0.8-1.5,1.4-2.5,1.9c-1,0.5-2.1,0.7-3.4,0.7
		c-1.4,0-2.7-0.3-3.8-0.9c-1.1-0.6-1.9-1.5-2.5-2.6v3.1h-1.4v-24.6h1.4v9.7c0.6-1,1.4-1.8,2.5-2.3c1.1-0.5,2.2-0.8,3.4-0.8
		c1.4,0,2.6,0.3,3.7,0.8c1,0.5,1.9,1.2,2.6,2.1c0.7,0.9,1.2,1.9,1.6,3C566,316.8,566.1,318.1,566.1,319.4z M564.7,319.3
		c0-1-0.1-2-0.4-2.9s-0.6-1.9-1.2-2.7c-0.6-0.8-1.3-1.4-2.2-1.9c-0.9-0.5-2-0.7-3.3-0.7c-0.7,0-1.4,0.1-2,0.4s-1.3,0.6-1.8,1
		c-0.5,0.4-1,0.9-1.3,1.5c-0.3,0.6-0.5,1.2-0.5,1.8v6c0,0.8,0.2,1.6,0.5,2.2c0.3,0.7,0.8,1.2,1.3,1.7c0.6,0.5,1.2,0.8,1.9,1.1
		c0.7,0.2,1.5,0.4,2.3,0.4c1.1,0,2.1-0.2,2.9-0.6c0.8-0.4,1.5-1,2.1-1.7c0.6-0.7,1-1.5,1.3-2.5C564.6,321.3,564.7,320.4,564.7,319.3
		z"/>
	<path class="st3" d="M582.9,327.8v-3.1c-0.6,1.1-1.4,2-2.5,2.6c-1.1,0.6-2.3,0.9-3.8,0.9c-1.3,0-2.4-0.2-3.4-0.7
		c-1-0.5-1.8-1.1-2.5-1.9c-0.7-0.8-1.2-1.7-1.6-2.8c-0.4-1.1-0.5-2.2-0.5-3.4c0-1.3,0.2-2.5,0.5-3.6c0.3-1.1,0.9-2.2,1.6-3
		c0.7-0.9,1.6-1.6,2.6-2.1c1-0.5,2.3-0.8,3.7-0.8c1.2,0,2.4,0.3,3.4,0.8c1.1,0.5,1.9,1.3,2.5,2.3v-2.7h1.4v17.6H582.9z M582.9,315.8
		c0-0.7-0.2-1.3-0.5-1.9c-0.3-0.6-0.8-1.1-1.3-1.5c-0.5-0.4-1.2-0.8-1.8-1c-0.7-0.2-1.4-0.4-2-0.4c-1.3,0-2.4,0.2-3.3,0.7
		c-0.9,0.5-1.6,1.1-2.2,1.9c-0.6,0.8-1,1.7-1.2,2.7s-0.4,2-0.4,2.9c0,1,0.1,2,0.4,2.9c0.3,0.9,0.7,1.7,1.3,2.5
		c0.6,0.7,1.3,1.3,2.1,1.7c0.8,0.4,1.8,0.6,2.9,0.6c0.8,0,1.6-0.1,2.3-0.4c0.7-0.2,1.4-0.6,1.9-1.1s1-1,1.3-1.7
		c0.3-0.7,0.5-1.4,0.5-2.2V315.8z"/>
	<path class="st3" d="M600.9,323.2c0,0.9-0.2,1.7-0.6,2.4c-0.4,0.6-0.9,1.2-1.6,1.6c-0.6,0.4-1.4,0.7-2.2,0.9s-1.6,0.3-2.4,0.3
		c-2.3,0-4.1-0.5-5.4-1.5s-1.9-2.6-1.9-4.8h1.4c0,1.8,0.5,3.1,1.6,4c1,0.9,2.5,1.3,4.4,1.3c0.6,0,1.2-0.1,1.8-0.2s1.2-0.4,1.7-0.6
		c0.5-0.3,0.9-0.7,1.3-1.2c0.3-0.5,0.5-1.1,0.5-1.7c0-0.7-0.2-1.3-0.5-1.7c-0.3-0.4-0.7-0.8-1.3-1.1s-1.1-0.5-1.8-0.7
		c-0.7-0.2-1.4-0.3-2.2-0.5c-0.8-0.2-1.6-0.4-2.3-0.6c-0.7-0.2-1.4-0.5-2-0.8c-0.6-0.3-1-0.8-1.4-1.3c-0.3-0.6-0.5-1.3-0.5-2.2
		c0-0.6,0.1-1.1,0.4-1.7c0.3-0.5,0.6-1,1.2-1.5c0.5-0.4,1.2-0.8,2-1c0.8-0.3,1.7-0.4,2.8-0.4c1,0,1.9,0.1,2.7,0.3
		c0.8,0.2,1.5,0.5,2.1,1c0.6,0.4,1,1,1.4,1.7c0.3,0.7,0.5,1.6,0.5,2.5H599c0-1.6-0.5-2.8-1.5-3.5s-2.2-1.1-3.8-1.1
		c-1.1,0-2,0.1-2.6,0.4c-0.6,0.3-1.1,0.6-1.5,1c-0.3,0.4-0.5,0.8-0.6,1.2c-0.1,0.4-0.1,0.7-0.1,0.8c0,0.8,0.2,1.4,0.7,1.9
		c0.4,0.5,1,0.8,1.7,1.1c0.7,0.3,1.4,0.5,2.1,0.6c0.8,0.1,1.4,0.3,2,0.5c0.7,0.2,1.3,0.4,2,0.6c0.7,0.2,1.2,0.5,1.8,0.8
		c0.5,0.3,0.9,0.8,1.2,1.3C600.7,321.7,600.9,322.4,600.9,323.2z"/>
	<path class="st3" d="M605.5,303.9c0,0.4-0.1,0.7-0.4,0.9c-0.3,0.2-0.6,0.3-0.9,0.3s-0.6-0.1-0.9-0.3s-0.4-0.5-0.4-0.9
		c0-0.4,0.1-0.7,0.4-0.9c0.3-0.2,0.6-0.3,0.9-0.3s0.6,0.1,0.9,0.3C605.3,303.2,605.5,303.5,605.5,303.9z M603.5,327.8v-17.6h1.4
		v17.6H603.5z"/>
	<path class="st3" d="M621.1,326.5c-1.3,1.2-3,1.7-5,1.7c-1.3,0-2.4-0.2-3.4-0.7c-1-0.5-1.8-1.1-2.5-1.9c-0.7-0.8-1.2-1.7-1.6-2.8
		c-0.4-1.1-0.5-2.2-0.5-3.4c0-1.3,0.2-2.5,0.5-3.7c0.4-1.1,0.9-2.2,1.6-3c0.7-0.9,1.6-1.6,2.6-2.1c1-0.5,2.3-0.8,3.7-0.8
		c0.9,0,1.8,0.1,2.6,0.4c0.8,0.3,1.5,0.7,2.1,1.2c0.6,0.5,1.1,1.1,1.5,1.9c0.4,0.7,0.7,1.6,0.8,2.5H622c-0.2-1.5-0.8-2.7-1.8-3.5
		c-1-0.8-2.2-1.2-3.7-1.2c-1.2,0-2.3,0.2-3.2,0.7c-0.9,0.5-1.6,1.1-2.2,1.8c-0.6,0.8-1,1.6-1.2,2.6c-0.3,1-0.4,2-0.4,3.1
		c0,1,0.1,2,0.4,2.9c0.3,0.9,0.7,1.7,1.2,2.5c0.6,0.7,1.2,1.3,2.1,1.7c0.8,0.4,1.8,0.6,2.9,0.6c0.8,0,1.5-0.1,2.2-0.4
		c0.7-0.3,1.3-0.6,1.8-1.1c0.5-0.5,1-1,1.3-1.7c0.3-0.6,0.5-1.4,0.6-2.2h1.4C623.2,323.7,622.4,325.3,621.1,326.5z"/>
	<path class="st3" d="M648.7,327.8v-11.3c0-1.6-0.4-3-1.3-4c-0.9-1-2.2-1.5-3.8-1.5c-1,0-1.8,0.2-2.6,0.6c-0.7,0.4-1.4,0.9-1.9,1.5
		c-0.5,0.6-0.9,1.4-1.1,2.2c-0.3,0.8-0.4,1.7-0.4,2.6v9.9h-1.4v-17.6h1.4v4.1c0.5-1.5,1.2-2.6,2.4-3.3c1.1-0.8,2.4-1.1,3.9-1.1
		c1.9,0,3.5,0.6,4.6,1.7c1.1,1.1,1.7,2.7,1.7,4.6v11.7H648.7z"/>
	<path class="st3" d="M666.3,326.5c-1.3,1.2-3,1.7-5,1.7c-1.3,0-2.4-0.2-3.4-0.7c-1-0.5-1.8-1.1-2.5-1.9c-0.7-0.8-1.2-1.7-1.6-2.8
		c-0.4-1.1-0.5-2.2-0.5-3.4c0-1.3,0.2-2.5,0.5-3.7c0.3-1.1,0.9-2.2,1.6-3s1.6-1.6,2.6-2.1c1-0.5,2.3-0.8,3.7-0.8
		c0.9,0,1.8,0.1,2.6,0.4c0.8,0.3,1.5,0.7,2.1,1.2s1.1,1.1,1.5,1.9s0.7,1.6,0.8,2.5l-13.8,5c0.1,0.9,0.3,1.7,0.7,2.4
		c0.3,0.8,0.8,1.4,1.3,2c0.5,0.6,1.2,1,1.9,1.3c0.8,0.3,1.6,0.5,2.6,0.5c0.8,0,1.5-0.1,2.2-0.4c0.7-0.3,1.3-0.6,1.8-1.1
		c0.5-0.5,1-1,1.3-1.7c0.3-0.6,0.5-1.4,0.6-2.2h1.4C668.4,323.7,667.6,325.3,666.3,326.5z M665.2,312.1c-1-0.7-2.1-1.1-3.5-1.1
		c-1.2,0-2.2,0.2-3.1,0.7c-0.9,0.4-1.6,1-2.1,1.8c-0.6,0.7-1,1.6-1.3,2.6c-0.3,1-0.4,2-0.4,3.1v0.6l12.4-4.5
		C666.8,313.9,666.1,312.9,665.2,312.1z"/>
	<path class="st3" d="M684,326.5c-1.3,1.2-3,1.7-5,1.7c-1.3,0-2.4-0.2-3.4-0.7c-1-0.5-1.8-1.1-2.5-1.9c-0.7-0.8-1.2-1.7-1.6-2.8
		c-0.4-1.1-0.5-2.2-0.5-3.4c0-1.3,0.2-2.5,0.5-3.7c0.3-1.1,0.9-2.2,1.6-3s1.6-1.6,2.6-2.1c1-0.5,2.3-0.8,3.7-0.8
		c0.9,0,1.8,0.1,2.6,0.4c0.8,0.3,1.5,0.7,2.1,1.2s1.1,1.1,1.5,1.9s0.7,1.6,0.8,2.5l-13.8,5c0.1,0.9,0.3,1.7,0.7,2.4
		c0.3,0.8,0.8,1.4,1.3,2c0.5,0.6,1.2,1,1.9,1.3c0.8,0.3,1.6,0.5,2.6,0.5c0.8,0,1.5-0.1,2.2-0.4c0.7-0.3,1.3-0.6,1.8-1.1
		c0.5-0.5,1-1,1.3-1.7c0.3-0.6,0.5-1.4,0.6-2.2h1.4C686.1,323.7,685.4,325.3,684,326.5z M682.9,312.1c-1-0.7-2.1-1.1-3.5-1.1
		c-1.2,0-2.2,0.2-3.1,0.7c-0.9,0.4-1.6,1-2.1,1.8c-0.6,0.7-1,1.6-1.3,2.6c-0.3,1-0.4,2-0.4,3.1v0.6l12.4-4.5
		C684.5,313.9,683.8,312.9,682.9,312.1z"/>
	<path class="st3" d="M703.2,327.8v-3.1c-0.6,1.1-1.4,2-2.5,2.6c-1.1,0.6-2.3,0.9-3.8,0.9c-1.3,0-2.4-0.2-3.4-0.7
		c-1-0.5-1.8-1.1-2.5-1.9c-0.7-0.8-1.2-1.7-1.6-2.8c-0.4-1.1-0.5-2.2-0.5-3.4c0-1.3,0.2-2.5,0.5-3.6c0.3-1.1,0.9-2.2,1.6-3
		c0.7-0.9,1.6-1.6,2.6-2.1c1-0.5,2.3-0.8,3.7-0.8c1.2,0,2.4,0.3,3.4,0.8c1.1,0.5,1.9,1.3,2.5,2.3v-9.7h1.4v24.6H703.2z M703.2,315.8
		c0-0.7-0.2-1.3-0.5-1.9c-0.3-0.6-0.8-1.1-1.3-1.5c-0.5-0.4-1.2-0.8-1.8-1c-0.7-0.2-1.4-0.4-2-0.4c-1.3,0-2.4,0.2-3.3,0.7
		c-0.9,0.5-1.6,1.1-2.2,1.9c-0.6,0.8-1,1.7-1.2,2.7s-0.4,2-0.4,2.9c0,1,0.1,2,0.4,2.9c0.3,0.9,0.7,1.7,1.3,2.5
		c0.6,0.7,1.3,1.3,2.1,1.7c0.8,0.4,1.8,0.6,2.9,0.6c0.8,0,1.6-0.1,2.3-0.4c0.7-0.2,1.4-0.6,1.9-1.1s1-1,1.3-1.7
		c0.3-0.7,0.5-1.4,0.5-2.2V315.8z"/>
	<path class="st3" d="M721.1,323.2c0,0.9-0.2,1.7-0.6,2.4c-0.4,0.6-0.9,1.2-1.6,1.6c-0.6,0.4-1.4,0.7-2.2,0.9s-1.6,0.3-2.4,0.3
		c-2.3,0-4.1-0.5-5.4-1.5s-1.9-2.6-1.9-4.8h1.4c0,1.8,0.5,3.1,1.6,4c1,0.9,2.5,1.3,4.4,1.3c0.6,0,1.2-0.1,1.8-0.2s1.2-0.4,1.7-0.6
		c0.5-0.3,0.9-0.7,1.3-1.2c0.3-0.5,0.5-1.1,0.5-1.7c0-0.7-0.2-1.3-0.5-1.7c-0.3-0.4-0.7-0.8-1.3-1.1s-1.1-0.5-1.8-0.7
		c-0.7-0.2-1.4-0.3-2.2-0.5c-0.8-0.2-1.6-0.4-2.3-0.6c-0.7-0.2-1.4-0.5-2-0.8c-0.6-0.3-1-0.8-1.4-1.3c-0.3-0.6-0.5-1.3-0.5-2.2
		c0-0.6,0.1-1.1,0.4-1.7c0.3-0.5,0.6-1,1.2-1.5c0.5-0.4,1.2-0.8,2-1c0.8-0.3,1.7-0.4,2.8-0.4c1,0,1.9,0.1,2.7,0.3
		c0.8,0.2,1.5,0.5,2.1,1c0.6,0.4,1,1,1.4,1.7c0.3,0.7,0.5,1.6,0.5,2.5h-1.4c0-1.6-0.5-2.8-1.5-3.5s-2.2-1.1-3.8-1.1
		c-1.1,0-2,0.1-2.6,0.4c-0.6,0.3-1.1,0.6-1.5,1c-0.3,0.4-0.5,0.8-0.6,1.2c-0.1,0.4-0.1,0.7-0.1,0.8c0,0.8,0.2,1.4,0.7,1.9
		c0.4,0.5,1,0.8,1.7,1.1c0.7,0.3,1.4,0.5,2.1,0.6c0.8,0.1,1.4,0.3,2,0.5c0.7,0.2,1.3,0.4,2,0.6c0.7,0.2,1.2,0.5,1.8,0.8
		c0.5,0.3,0.9,0.8,1.2,1.3C720.9,321.7,721.1,322.4,721.1,323.2z"/>
	<path class="st3" d="M462.6,368.8v-3.1c-0.6,1.1-1.4,2-2.5,2.6c-1.1,0.6-2.3,0.9-3.8,0.9c-1.3,0-2.4-0.2-3.4-0.7
		c-1-0.5-1.8-1.1-2.5-1.9c-0.7-0.8-1.2-1.7-1.6-2.8c-0.4-1.1-0.5-2.2-0.5-3.4c0-1.3,0.2-2.5,0.5-3.6c0.3-1.1,0.9-2.2,1.6-3
		c0.7-0.9,1.6-1.6,2.6-2.1c1-0.5,2.3-0.8,3.7-0.8c1.2,0,2.4,0.3,3.4,0.8c1.1,0.5,1.9,1.3,2.5,2.3v-2.7h1.4v17.6H462.6z M462.6,356.7
		c0-0.7-0.2-1.3-0.5-1.9c-0.3-0.6-0.8-1.1-1.3-1.5c-0.5-0.4-1.2-0.8-1.8-1c-0.7-0.2-1.4-0.4-2-0.4c-1.3,0-2.4,0.2-3.3,0.7
		c-0.9,0.5-1.6,1.1-2.2,1.9c-0.6,0.8-1,1.7-1.2,2.7s-0.4,2-0.4,2.9c0,1,0.1,2,0.4,2.9c0.3,0.9,0.7,1.7,1.3,2.5
		c0.6,0.7,1.3,1.3,2.1,1.7c0.8,0.4,1.8,0.6,2.9,0.6c0.8,0,1.6-0.1,2.3-0.4c0.7-0.2,1.4-0.6,1.9-1.1s1-1,1.3-1.7
		c0.3-0.7,0.5-1.4,0.5-2.2V356.7z"/>
	<path class="st3" d="M480.3,368.8v-11.3c0-1.6-0.4-3-1.3-4c-0.9-1-2.2-1.5-3.8-1.5c-1,0-1.8,0.2-2.6,0.6c-0.7,0.4-1.4,0.9-1.9,1.5
		c-0.5,0.6-0.9,1.4-1.1,2.2c-0.3,0.8-0.4,1.7-0.4,2.6v9.9h-1.4v-17.6h1.4v4.1c0.5-1.5,1.2-2.6,2.4-3.3c1.1-0.8,2.4-1.1,3.9-1.1
		c1.9,0,3.5,0.6,4.6,1.7c1.1,1.1,1.7,2.7,1.7,4.6v11.7H480.3z"/>
	<path class="st3" d="M499.1,368.8v-3.1c-0.6,1.1-1.4,2-2.5,2.6c-1.1,0.6-2.3,0.9-3.8,0.9c-1.3,0-2.4-0.2-3.4-0.7
		c-1-0.5-1.8-1.1-2.5-1.9c-0.7-0.8-1.2-1.7-1.6-2.8c-0.4-1.1-0.5-2.2-0.5-3.4c0-1.3,0.2-2.5,0.5-3.6c0.3-1.1,0.9-2.2,1.6-3
		c0.7-0.9,1.6-1.6,2.6-2.1c1-0.5,2.3-0.8,3.7-0.8c1.2,0,2.4,0.3,3.4,0.8c1.1,0.5,1.9,1.3,2.5,2.3v-9.7h1.4v24.6H499.1z M499.1,356.7
		c0-0.7-0.2-1.3-0.5-1.9c-0.3-0.6-0.8-1.1-1.3-1.5c-0.5-0.4-1.2-0.8-1.8-1c-0.7-0.2-1.4-0.4-2-0.4c-1.3,0-2.4,0.2-3.3,0.7
		c-0.9,0.5-1.6,1.1-2.2,1.9c-0.6,0.8-1,1.7-1.2,2.7s-0.4,2-0.4,2.9c0,1,0.1,2,0.4,2.9c0.3,0.9,0.7,1.7,1.3,2.5
		c0.6,0.7,1.3,1.3,2.1,1.7c0.8,0.4,1.8,0.6,2.9,0.6c0.8,0,1.6-0.1,2.3-0.4c0.7-0.2,1.4-0.6,1.9-1.1s1-1,1.3-1.7
		c0.3-0.7,0.5-1.4,0.5-2.2V356.7z"/>
	<path class="st3" d="M539,368.8v-4c-0.4,1.5-1.2,2.6-2.3,3.3c-1.1,0.7-2.4,1.1-3.9,1.1c-1.7,0-3.1-0.4-4.1-1.3
		c-1.1-0.9-1.7-2.1-2-3.6c-0.4,1.6-1.1,2.8-2.2,3.7c-1.1,0.8-2.5,1.2-4.2,1.2c-1.9,0-3.5-0.6-4.6-1.7c-1.1-1.1-1.7-2.7-1.7-4.6
		v-11.7h1.4v11.3c0,1.6,0.4,3,1.3,4s2.2,1.5,3.9,1.5c1,0,1.8-0.2,2.6-0.6c0.7-0.4,1.4-0.9,1.8-1.5c0.5-0.6,0.9-1.4,1.1-2.2
		c0.3-0.8,0.4-1.7,0.4-2.6v-9.9h1.4v11.3c0,1.6,0.4,3,1.3,4c0.9,1,2.1,1.5,3.8,1.5c1,0,1.8-0.2,2.6-0.6c0.8-0.4,1.4-0.9,1.9-1.5
		c0.5-0.6,0.9-1.4,1.1-2.2c0.3-0.8,0.4-1.7,0.4-2.6v-9.9h1.4v17.6H539z"/>
	<path class="st3" d="M559.8,360c0,1.2-0.2,2.4-0.5,3.5c-0.4,1.1-0.9,2.1-1.6,2.9c-0.7,0.9-1.5,1.5-2.5,2c-1,0.5-2.2,0.8-3.5,0.8
		c-1.3,0-2.5-0.3-3.5-0.8c-1-0.5-1.9-1.2-2.5-2c-0.7-0.9-1.2-1.8-1.5-2.9c-0.3-1.1-0.5-2.3-0.5-3.5s0.2-2.4,0.5-3.5
		c0.3-1.1,0.9-2.1,1.5-2.9c0.7-0.9,1.5-1.5,2.5-2c1-0.5,2.2-0.8,3.5-0.8c1.3,0,2.5,0.3,3.5,0.8c1,0.5,1.9,1.2,2.5,2
		c0.7,0.9,1.2,1.8,1.6,2.9C559.6,357.7,559.8,358.8,559.8,360z M558.4,360c0-1-0.1-2-0.4-3c-0.3-1-0.7-1.8-1.3-2.5s-1.3-1.3-2.1-1.8
		c-0.8-0.5-1.8-0.7-2.9-0.7c-1.1,0-2.1,0.2-2.9,0.7c-0.8,0.5-1.5,1.1-2.1,1.8c-0.6,0.7-1,1.6-1.2,2.5c-0.3,1-0.4,1.9-0.4,3
		s0.1,2,0.4,3c0.3,1,0.7,1.8,1.2,2.6c0.6,0.8,1.3,1.3,2.1,1.8c0.8,0.4,1.8,0.7,2.9,0.7c1.1,0,2.1-0.2,2.9-0.7c0.8-0.4,1.5-1,2.1-1.8
		c0.6-0.7,1-1.6,1.3-2.6C558.2,362,558.4,361,558.4,360z"/>
	<path class="st3" d="M570.3,352c-1,0-1.8,0.2-2.6,0.6c-0.7,0.4-1.4,0.9-1.9,1.5c-0.5,0.6-0.9,1.4-1.1,2.2c-0.3,0.8-0.4,1.7-0.4,2.6
		v9.9h-1.4v-17.6h1.4v4.1c0.5-1.5,1.2-2.6,2.4-3.3c1.1-0.8,2.4-1.1,3.9-1.1c0.1,0,0.2,0,0.3,0s0.2,0,0.3,0L570.3,352z"/>
	<path class="st3" d="M580.3,368.8l-5.7-7.6v7.6h-1.4v-24.6h1.4v14.6l5.7-7.6h1.6l-6.5,8.8l6.5,8.8H580.3z"/>
	<path class="st3" d="M594.9,352.3v16.5h-1.4v-16.5h-1.8v-1.1h1.8v-4.5l1.4-1.6v6.1h1.8v1.1H594.9z"/>
	<path class="st3" d="M614.3,360c0,1.2-0.2,2.4-0.5,3.5c-0.4,1.1-0.9,2.1-1.6,2.9c-0.7,0.9-1.5,1.5-2.5,2c-1,0.5-2.2,0.8-3.5,0.8
		c-1.3,0-2.5-0.3-3.5-0.8c-1-0.5-1.9-1.2-2.5-2c-0.7-0.9-1.2-1.8-1.5-2.9c-0.3-1.1-0.5-2.3-0.5-3.5s0.2-2.4,0.5-3.5
		c0.3-1.1,0.9-2.1,1.5-2.9c0.7-0.9,1.5-1.5,2.5-2c1-0.5,2.2-0.8,3.5-0.8c1.3,0,2.5,0.3,3.5,0.8c1,0.5,1.9,1.2,2.5,2
		c0.7,0.9,1.2,1.8,1.6,2.9C614.1,357.7,614.3,358.8,614.3,360z M612.9,360c0-1-0.1-2-0.4-3c-0.3-1-0.7-1.8-1.3-2.5s-1.3-1.3-2.1-1.8
		c-0.8-0.5-1.8-0.7-2.9-0.7c-1.1,0-2.1,0.2-2.9,0.7c-0.8,0.5-1.5,1.1-2.1,1.8c-0.6,0.7-1,1.6-1.2,2.5c-0.3,1-0.4,1.9-0.4,3
		s0.1,2,0.4,3c0.3,1,0.7,1.8,1.2,2.6c0.6,0.8,1.3,1.3,2.1,1.8c0.8,0.4,1.8,0.7,2.9,0.7c1.1,0,2.1-0.2,2.9-0.7c0.8-0.4,1.5-1,2.1-1.8
		c0.6-0.7,1-1.6,1.3-2.6C612.7,362,612.9,361,612.9,360z"/>
	<path class="st3" d="M630.7,374.6c-1.2,1.2-3.1,1.9-5.7,1.9c-0.9,0-1.8-0.1-2.6-0.3s-1.5-0.5-2.2-1c-0.6-0.4-1.2-1-1.6-1.7
		c-0.4-0.7-0.6-1.6-0.7-2.6h1.4c0,0.8,0.2,1.5,0.5,2c0.3,0.6,0.7,1,1.2,1.4c0.5,0.4,1.1,0.6,1.7,0.8c0.6,0.2,1.3,0.3,2.1,0.3
		c2,0,3.5-0.5,4.6-1.5c1.1-1,1.6-2.5,1.6-4.5v-3.5c-0.6,1.1-1.4,2-2.5,2.6c-1.1,0.6-2.3,0.9-3.8,0.9c-1.3,0-2.4-0.2-3.4-0.7
		c-1-0.5-1.8-1.1-2.5-1.9c-0.7-0.8-1.2-1.7-1.6-2.8c-0.4-1.1-0.5-2.2-0.5-3.4c0-1.3,0.2-2.5,0.5-3.6c0.3-1.1,0.9-2.2,1.6-3
		c0.7-0.9,1.6-1.6,2.6-2.1c1-0.5,2.3-0.8,3.7-0.8c1.2,0,2.4,0.3,3.4,0.8c1.1,0.5,1.9,1.3,2.5,2.3v-2.7h1.4v18
		C632.5,371.5,631.9,373.3,630.7,374.6z M631.1,356.7c0-0.7-0.2-1.3-0.5-1.9c-0.3-0.6-0.8-1.1-1.3-1.5c-0.5-0.4-1.2-0.8-1.8-1
		c-0.7-0.2-1.4-0.4-2-0.4c-1.3,0-2.4,0.2-3.3,0.7c-0.9,0.5-1.6,1.1-2.2,1.9c-0.6,0.8-1,1.7-1.2,2.7s-0.4,2-0.4,2.9
		c0,1,0.1,2,0.4,2.9c0.3,0.9,0.7,1.7,1.3,2.5c0.6,0.7,1.3,1.3,2.1,1.7c0.8,0.4,1.8,0.6,2.9,0.6c0.8,0,1.6-0.1,2.3-0.4
		c0.7-0.2,1.4-0.6,1.9-1.1s1-1,1.3-1.7c0.3-0.7,0.5-1.4,0.5-2.2V356.7z"/>
	<path class="st3" d="M648.4,367.5c-1.3,1.2-3,1.7-5,1.7c-1.3,0-2.4-0.2-3.4-0.7c-1-0.5-1.8-1.1-2.5-1.9c-0.7-0.8-1.2-1.7-1.6-2.8
		c-0.4-1.1-0.5-2.2-0.5-3.4c0-1.3,0.2-2.5,0.5-3.7c0.3-1.1,0.9-2.2,1.6-3s1.6-1.6,2.6-2.1c1-0.5,2.3-0.8,3.7-0.8
		c0.9,0,1.8,0.1,2.6,0.4c0.8,0.3,1.5,0.7,2.1,1.2s1.1,1.1,1.5,1.9s0.7,1.6,0.8,2.5l-13.8,5c0.1,0.9,0.3,1.7,0.7,2.4
		c0.3,0.8,0.8,1.4,1.3,2c0.5,0.6,1.2,1,1.9,1.3c0.8,0.3,1.6,0.5,2.6,0.5c0.8,0,1.5-0.1,2.2-0.4c0.7-0.3,1.3-0.6,1.8-1.1
		c0.5-0.5,1-1,1.3-1.7c0.3-0.6,0.5-1.4,0.6-2.2h1.4C650.5,364.7,649.8,366.3,648.4,367.5z M647.3,353.1c-1-0.7-2.1-1.1-3.5-1.1
		c-1.2,0-2.2,0.2-3.1,0.7c-0.9,0.4-1.6,1-2.1,1.8c-0.6,0.7-1,1.6-1.3,2.6c-0.3,1-0.4,2-0.4,3.1v0.6l12.4-4.5
		C648.9,354.9,648.2,353.9,647.3,353.1z"/>
	<path class="st3" d="M655.3,352.3v16.5h-1.4v-16.5H652v-1.1h1.8v-4.5l1.4-1.6v6.1h1.8v1.1H655.3z"/>
	<path class="st3" d="M671.5,368.8v-11.3c0-1.6-0.4-3-1.3-4c-0.9-1-2.2-1.5-3.8-1.5c-1,0-1.8,0.2-2.6,0.6c-0.7,0.4-1.4,0.9-1.9,1.5
		c-0.5,0.6-0.9,1.4-1.1,2.2c-0.3,0.8-0.4,1.7-0.4,2.6v9.9H659v-24.6h1.4v11.1c0.5-1.5,1.2-2.6,2.4-3.3c1.1-0.8,2.4-1.1,3.9-1.1
		c1.9,0,3.5,0.6,4.6,1.7c1.1,1.1,1.7,2.7,1.7,4.6v11.7H671.5z"/>
	<path class="st3" d="M689.1,367.5c-1.3,1.2-3,1.7-5,1.7c-1.3,0-2.4-0.2-3.4-0.7c-1-0.5-1.8-1.1-2.5-1.9c-0.7-0.8-1.2-1.7-1.6-2.8
		c-0.4-1.1-0.5-2.2-0.5-3.4c0-1.3,0.2-2.5,0.5-3.7c0.3-1.1,0.9-2.2,1.6-3s1.6-1.6,2.6-2.1c1-0.5,2.3-0.8,3.7-0.8
		c0.9,0,1.8,0.1,2.6,0.4c0.8,0.3,1.5,0.7,2.1,1.2s1.1,1.1,1.5,1.9s0.7,1.6,0.8,2.5l-13.8,5c0.1,0.9,0.3,1.7,0.7,2.4
		c0.3,0.8,0.8,1.4,1.3,2c0.5,0.6,1.2,1,1.9,1.3c0.8,0.3,1.6,0.5,2.6,0.5c0.8,0,1.5-0.1,2.2-0.4c0.7-0.3,1.3-0.6,1.8-1.1
		c0.5-0.5,1-1,1.3-1.7c0.3-0.6,0.5-1.4,0.6-2.2h1.4C691.2,364.7,690.4,366.3,689.1,367.5z M687.9,353.1c-1-0.7-2.1-1.1-3.5-1.1
		c-1.2,0-2.2,0.2-3.1,0.7c-0.9,0.4-1.6,1-2.1,1.8c-0.6,0.7-1,1.6-1.3,2.6c-0.3,1-0.4,2-0.4,3.1v0.6l12.4-4.5
		C689.6,354.9,688.9,353.9,687.9,353.1z"/>
	<path class="st3" d="M701.9,352c-1,0-1.8,0.2-2.6,0.6c-0.7,0.4-1.4,0.9-1.9,1.5c-0.5,0.6-0.9,1.4-1.1,2.2c-0.3,0.8-0.4,1.7-0.4,2.6
		v9.9h-1.4v-17.6h1.4v4.1c0.5-1.5,1.2-2.6,2.4-3.3c1.1-0.8,2.4-1.1,3.9-1.1c0.1,0,0.2,0,0.3,0s0.2,0,0.3,0L701.9,352z"/>
	<path class="st3" d="M463.2,401c0,1.2-0.2,2.4-0.5,3.5c-0.4,1.1-0.9,2.1-1.6,2.9c-0.7,0.9-1.5,1.5-2.5,2c-1,0.5-2.2,0.8-3.5,0.8
		c-1.3,0-2.5-0.3-3.5-0.8c-1-0.5-1.9-1.2-2.5-2c-0.7-0.9-1.2-1.8-1.5-2.9c-0.3-1.1-0.5-2.3-0.5-3.5s0.2-2.4,0.5-3.5
		c0.3-1.1,0.9-2.1,1.5-2.9c0.7-0.9,1.5-1.5,2.5-2c1-0.5,2.2-0.8,3.5-0.8c1.3,0,2.5,0.3,3.5,0.8c1,0.5,1.9,1.2,2.5,2
		c0.7,0.9,1.2,1.8,1.6,2.9C463,398.6,463.2,399.8,463.2,401z M461.8,401c0-1-0.1-2-0.4-3c-0.3-1-0.7-1.8-1.3-2.5s-1.3-1.3-2.1-1.8
		c-0.8-0.5-1.8-0.7-2.9-0.7c-1.1,0-2.1,0.2-2.9,0.7c-0.8,0.5-1.5,1.1-2.1,1.8c-0.6,0.7-1,1.6-1.2,2.5c-0.3,1-0.4,1.9-0.4,3
		s0.1,2,0.4,3c0.3,1,0.7,1.8,1.2,2.6c0.6,0.8,1.3,1.3,2.1,1.8c0.8,0.4,1.8,0.7,2.9,0.7c1.1,0,2.1-0.2,2.9-0.7c0.8-0.4,1.5-1,2.1-1.8
		c0.6-0.7,1-1.6,1.3-2.6C461.6,403,461.8,402,461.8,401z"/>
	<path class="st3" d="M478.8,409.8v-11.3c0-1.6-0.4-3-1.3-4c-0.9-1-2.2-1.5-3.8-1.5c-1,0-1.8,0.2-2.6,0.6c-0.7,0.4-1.4,0.9-1.9,1.5
		c-0.5,0.6-0.9,1.4-1.1,2.2c-0.3,0.8-0.4,1.7-0.4,2.6v9.9h-1.4v-17.6h1.4v4.1c0.5-1.5,1.2-2.6,2.4-3.3c1.1-0.8,2.4-1.1,3.9-1.1
		c1.9,0,3.5,0.6,4.6,1.7c1.1,1.1,1.7,2.7,1.7,4.6v11.7H478.8z"/>
	<path class="st3" d="M507.4,409.8v-3.1c-0.6,1.1-1.4,2-2.5,2.6c-1.1,0.6-2.3,0.9-3.8,0.9c-1.3,0-2.4-0.2-3.4-0.7
		c-1-0.5-1.8-1.1-2.5-1.9c-0.7-0.8-1.2-1.7-1.6-2.8c-0.4-1.1-0.5-2.2-0.5-3.4c0-1.3,0.2-2.5,0.5-3.6c0.3-1.1,0.9-2.2,1.6-3
		c0.7-0.9,1.6-1.6,2.6-2.1c1-0.5,2.3-0.8,3.7-0.8c1.2,0,2.4,0.3,3.4,0.8c1.1,0.5,1.9,1.3,2.5,2.3v-2.7h1.4v17.6H507.4z M507.4,397.7
		c0-0.7-0.2-1.3-0.5-1.9c-0.3-0.6-0.8-1.1-1.3-1.5c-0.5-0.4-1.2-0.8-1.8-1c-0.7-0.2-1.4-0.4-2-0.4c-1.3,0-2.4,0.2-3.3,0.7
		c-0.9,0.5-1.6,1.1-2.2,1.9c-0.6,0.8-1,1.7-1.2,2.7s-0.4,2-0.4,2.9c0,1,0.1,2,0.4,2.9c0.3,0.9,0.7,1.7,1.3,2.5
		c0.6,0.7,1.3,1.3,2.1,1.7c0.8,0.4,1.8,0.6,2.9,0.6c0.8,0,1.6-0.1,2.3-0.4c0.7-0.2,1.4-0.6,1.9-1.1s1-1,1.3-1.7
		c0.3-0.7,0.5-1.4,0.5-2.2V397.7z"/>
	<path class="st3" d="M537.9,401.3c0,1.2-0.2,2.4-0.5,3.4c-0.4,1.1-0.9,2-1.6,2.8c-0.7,0.8-1.5,1.4-2.5,1.9c-1,0.5-2.1,0.7-3.4,0.7
		c-1.4,0-2.7-0.3-3.8-0.9c-1.1-0.6-1.9-1.5-2.5-2.6v3.1h-1.4v-24.6h1.4v9.7c0.6-1,1.4-1.8,2.5-2.3c1.1-0.5,2.2-0.8,3.4-0.8
		c1.4,0,2.6,0.3,3.7,0.8c1,0.5,1.9,1.2,2.6,2.1c0.7,0.9,1.2,1.9,1.6,3C537.8,398.8,537.9,400,537.9,401.3z M536.5,401.3
		c0-1-0.1-2-0.4-2.9s-0.6-1.9-1.2-2.7c-0.6-0.8-1.3-1.4-2.2-1.9c-0.9-0.5-2-0.7-3.3-0.7c-0.7,0-1.4,0.1-2,0.4s-1.3,0.6-1.8,1
		c-0.5,0.4-1,0.9-1.3,1.5c-0.3,0.6-0.5,1.2-0.5,1.8v6c0,0.8,0.2,1.6,0.5,2.2c0.3,0.7,0.8,1.2,1.3,1.7c0.6,0.5,1.2,0.8,1.9,1.1
		c0.7,0.2,1.5,0.4,2.3,0.4c1.1,0,2.1-0.2,2.9-0.6c0.8-0.4,1.5-1,2.1-1.7c0.6-0.7,1-1.5,1.3-2.5C536.4,403.3,536.5,402.3,536.5,401.3
		z"/>
	<path class="st3" d="M548.4,393c-1,0-1.8,0.2-2.6,0.6c-0.7,0.4-1.4,0.9-1.9,1.5c-0.5,0.6-0.9,1.4-1.1,2.2c-0.3,0.8-0.4,1.7-0.4,2.6
		v9.9h-1.4v-17.6h1.4v4.1c0.5-1.5,1.2-2.6,2.4-3.3c1.1-0.8,2.4-1.1,3.9-1.1c0.1,0,0.2,0,0.3,0s0.2,0,0.3,0L548.4,393z"/>
	<path class="st3" d="M553.3,385.8c0,0.4-0.1,0.7-0.4,0.9c-0.3,0.2-0.6,0.3-0.9,0.3s-0.6-0.1-0.9-0.3s-0.4-0.5-0.4-0.9
		c0-0.4,0.1-0.7,0.4-0.9c0.3-0.2,0.6-0.3,0.9-0.3s0.6,0.1,0.9,0.3C553.1,385.2,553.3,385.5,553.3,385.8z M551.3,409.8v-17.6h1.4
		v17.6H551.3z"/>
	<path class="st3" d="M569.7,415.5c-1.2,1.2-3.1,1.9-5.7,1.9c-0.9,0-1.8-0.1-2.6-0.3s-1.5-0.5-2.2-1c-0.6-0.4-1.2-1-1.6-1.7
		c-0.4-0.7-0.6-1.6-0.7-2.6h1.4c0,0.8,0.2,1.5,0.5,2c0.3,0.6,0.7,1,1.2,1.4c0.5,0.4,1.1,0.6,1.7,0.8c0.6,0.2,1.3,0.3,2.1,0.3
		c2,0,3.5-0.5,4.6-1.5c1.1-1,1.6-2.5,1.6-4.5v-3.5c-0.6,1.1-1.4,2-2.5,2.6c-1.1,0.6-2.3,0.9-3.8,0.9c-1.3,0-2.4-0.2-3.4-0.7
		c-1-0.5-1.8-1.1-2.5-1.9c-0.7-0.8-1.2-1.7-1.6-2.8c-0.4-1.1-0.5-2.2-0.5-3.4c0-1.3,0.2-2.5,0.5-3.6c0.3-1.1,0.9-2.2,1.6-3
		c0.7-0.9,1.6-1.6,2.6-2.1c1-0.5,2.3-0.8,3.7-0.8c1.2,0,2.4,0.3,3.4,0.8c1.1,0.5,1.9,1.3,2.5,2.3v-2.7h1.4v18
		C571.5,412.5,570.9,414.3,569.7,415.5z M570.1,397.7c0-0.7-0.2-1.3-0.5-1.9c-0.3-0.6-0.8-1.1-1.3-1.5c-0.5-0.4-1.2-0.8-1.8-1
		c-0.7-0.2-1.4-0.4-2-0.4c-1.3,0-2.4,0.2-3.3,0.7c-0.9,0.5-1.6,1.1-2.2,1.9c-0.6,0.8-1,1.7-1.2,2.7s-0.4,2-0.4,2.9
		c0,1,0.1,2,0.4,2.9c0.3,0.9,0.7,1.7,1.3,2.5c0.6,0.7,1.3,1.3,2.1,1.7c0.8,0.4,1.8,0.6,2.9,0.6c0.8,0,1.6-0.1,2.3-0.4
		c0.7-0.2,1.4-0.6,1.9-1.1s1-1,1.3-1.7c0.3-0.7,0.5-1.4,0.5-2.2V397.7z"/>
	<path class="st3" d="M587.5,409.8v-11.3c0-1.6-0.4-3-1.3-4c-0.9-1-2.2-1.5-3.8-1.5c-1,0-1.8,0.2-2.6,0.6c-0.7,0.4-1.4,0.9-1.9,1.5
		c-0.5,0.6-0.9,1.4-1.1,2.2c-0.3,0.8-0.4,1.7-0.4,2.6v9.9H575v-24.6h1.4v11.1c0.5-1.5,1.2-2.6,2.4-3.3c1.1-0.8,2.4-1.1,3.9-1.1
		c1.9,0,3.5,0.6,4.6,1.7c1.1,1.1,1.7,2.7,1.7,4.6v11.7H587.5z"/>
	<path class="st3" d="M594.1,393.3v16.5h-1.4v-16.5h-1.8v-1.1h1.8v-4.5l1.4-1.6v6.1h1.8v1.1H594.1z"/>
	<path class="st3" d="M610.2,408.5c-1.3,1.2-3,1.7-5,1.7c-1.3,0-2.4-0.2-3.4-0.7c-1-0.5-1.8-1.1-2.5-1.9c-0.7-0.8-1.2-1.7-1.6-2.8
		c-0.4-1.1-0.5-2.2-0.5-3.4c0-1.3,0.2-2.5,0.5-3.7c0.3-1.1,0.9-2.2,1.6-3s1.6-1.6,2.6-2.1c1-0.5,2.3-0.8,3.7-0.8
		c0.9,0,1.8,0.1,2.6,0.4c0.8,0.3,1.5,0.7,2.1,1.2s1.1,1.1,1.5,1.9s0.7,1.6,0.8,2.5l-13.8,5c0.1,0.9,0.3,1.7,0.7,2.4
		c0.3,0.8,0.8,1.4,1.3,2c0.5,0.6,1.2,1,1.9,1.3c0.8,0.3,1.6,0.5,2.6,0.5c0.8,0,1.5-0.1,2.2-0.4c0.7-0.3,1.3-0.6,1.8-1.1
		c0.5-0.5,1-1,1.3-1.7c0.3-0.6,0.5-1.4,0.6-2.2h1.4C612.3,405.7,611.5,407.3,610.2,408.5z M609,394.1c-1-0.7-2.1-1.1-3.5-1.1
		c-1.2,0-2.2,0.2-3.1,0.7c-0.9,0.4-1.6,1-2.1,1.8c-0.6,0.7-1,1.6-1.3,2.6c-0.3,1-0.4,2-0.4,3.1v0.6l12.4-4.5
		C610.6,395.8,610,394.8,609,394.1z"/>
	<path class="st3" d="M623,393c-1,0-1.8,0.2-2.6,0.6c-0.7,0.4-1.4,0.9-1.9,1.5c-0.5,0.6-0.9,1.4-1.1,2.2c-0.3,0.8-0.4,1.7-0.4,2.6
		v9.9h-1.4v-17.6h1.4v4.1c0.5-1.5,1.2-2.6,2.4-3.3c1.1-0.8,2.4-1.1,3.9-1.1c0.1,0,0.2,0,0.3,0s0.2,0,0.3,0L623,393z"/>
	<path class="st3" d="M640.3,386c-0.3,0-0.6,0-0.9,0c-0.3,0-0.6,0-0.8,0.1c-0.3,0-0.5,0.2-0.8,0.3c-0.2,0.2-0.4,0.4-0.5,0.8
		c-0.1,0.4-0.2,0.9-0.2,1.5v3.5h1.8v1.2H637v16.4h-1.4v-16.4h-1.8v-1.2h1.8v-4c0-0.7,0.1-1.3,0.3-1.7s0.4-0.8,0.7-1.1s0.7-0.5,1-0.6
		c0.4-0.1,0.8-0.2,1.3-0.2c0.5,0,1,0,1.2,0.1s0.5,0.1,0.8,0.1v1.2C640.7,386,640.5,386,640.3,386z"/>
	<path class="st3" d="M653.2,409.8v-4c-0.5,1.5-1.2,2.6-2.4,3.3c-1.1,0.7-2.4,1.1-4,1.1c-1.9,0-3.5-0.6-4.6-1.7
		c-1.1-1.1-1.7-2.7-1.7-4.6v-11.7h1.4v11.3c0,1.6,0.4,3,1.3,4s2.2,1.5,3.9,1.5c1,0,1.8-0.2,2.6-0.6c0.7-0.4,1.4-0.9,1.8-1.5
		c0.5-0.6,0.9-1.4,1.1-2.2c0.3-0.8,0.4-1.7,0.4-2.6v-9.9h1.5v17.6H653.2z"/>
	<path class="st3" d="M659.8,393.3v16.5h-1.4v-16.5h-1.8v-1.1h1.8v-4.5l1.4-1.6v6.1h1.8v1.1H659.8z"/>
	<path class="st3" d="M676,409.8v-4c-0.5,1.5-1.2,2.6-2.4,3.3c-1.1,0.7-2.4,1.1-4,1.1c-1.9,0-3.5-0.6-4.6-1.7
		c-1.1-1.1-1.7-2.7-1.7-4.6v-11.7h1.4v11.3c0,1.6,0.4,3,1.3,4s2.2,1.5,3.9,1.5c1,0,1.8-0.2,2.6-0.6c0.7-0.4,1.4-0.9,1.8-1.5
		c0.5-0.6,0.9-1.4,1.1-2.2c0.3-0.8,0.4-1.7,0.4-2.6v-9.9h1.5v17.6H676z"/>
	<path class="st3" d="M688.5,393c-1,0-1.8,0.2-2.6,0.6c-0.7,0.4-1.4,0.9-1.9,1.5c-0.5,0.6-0.9,1.4-1.1,2.2c-0.3,0.8-0.4,1.7-0.4,2.6
		v9.9h-1.4v-17.6h1.4v4.1c0.5-1.5,1.2-2.6,2.4-3.3c1.1-0.8,2.4-1.1,3.9-1.1c0.1,0,0.2,0,0.3,0s0.2,0,0.3,0L688.5,393z"/>
	<path class="st3" d="M700.8,408.5c-1.3,1.2-3,1.7-5,1.7c-1.3,0-2.4-0.2-3.4-0.7c-1-0.5-1.8-1.1-2.5-1.9c-0.7-0.8-1.2-1.7-1.6-2.8
		c-0.4-1.1-0.5-2.2-0.5-3.4c0-1.3,0.2-2.5,0.5-3.7c0.3-1.1,0.9-2.2,1.6-3s1.6-1.6,2.6-2.1c1-0.5,2.3-0.8,3.7-0.8
		c0.9,0,1.8,0.1,2.6,0.4c0.8,0.3,1.5,0.7,2.1,1.2s1.1,1.1,1.5,1.9s0.7,1.6,0.8,2.5l-13.8,5c0.1,0.9,0.3,1.7,0.7,2.4
		c0.3,0.8,0.8,1.4,1.3,2c0.5,0.6,1.2,1,1.9,1.3c0.8,0.3,1.6,0.5,2.6,0.5c0.8,0,1.5-0.1,2.2-0.4c0.7-0.3,1.3-0.6,1.8-1.1
		c0.5-0.5,1-1,1.3-1.7c0.3-0.6,0.5-1.4,0.6-2.2h1.4C702.9,405.7,702.1,407.3,700.8,408.5z M699.6,394.1c-1-0.7-2.1-1.1-3.5-1.1
		c-1.2,0-2.2,0.2-3.1,0.7c-0.9,0.4-1.6,1-2.1,1.8c-0.6,0.7-1,1.6-1.3,2.6c-0.3,1-0.4,2-0.4,3.1v0.6l12.4-4.5
		C701.2,395.8,700.6,394.8,699.6,394.1z"/>
</g>
<g>
	<path class="st3" d="M238.2,31.6V20.4h-10v11.2H225V7h3.2v10.8h10V7h3.3v24.6H238.2z"/>
	<path class="st3" d="M261.8,22.8c0,1.2-0.2,2.4-0.5,3.5c-0.4,1.1-0.9,2.1-1.6,3c-0.7,0.9-1.6,1.5-2.7,2c-1.1,0.5-2.3,0.8-3.8,0.8
		c-1.4,0-2.7-0.3-3.8-0.8c-1.1-0.5-2-1.2-2.7-2c-0.7-0.9-1.3-1.8-1.6-3c-0.4-1.1-0.5-2.3-0.5-3.5c0-1.2,0.2-2.4,0.5-3.5
		c0.4-1.1,0.9-2.1,1.6-3c0.7-0.9,1.6-1.5,2.7-2c1.1-0.5,2.3-0.8,3.8-0.8c1.4,0,2.7,0.3,3.8,0.8c1.1,0.5,2,1.2,2.7,2
		c0.7,0.9,1.3,1.8,1.6,3C261.6,20.4,261.8,21.6,261.8,22.8z M258.8,22.8c0-0.9-0.1-1.7-0.3-2.5c-0.2-0.8-0.6-1.6-1-2.2
		c-0.5-0.7-1-1.2-1.7-1.6c-0.7-0.4-1.5-0.6-2.5-0.6c-1,0-1.8,0.2-2.5,0.6c-0.7,0.4-1.3,0.9-1.7,1.6c-0.5,0.7-0.8,1.4-1,2.2
		s-0.3,1.7-0.3,2.5c0,0.9,0.1,1.7,0.3,2.5c0.2,0.8,0.6,1.6,1,2.2c0.5,0.6,1,1.2,1.7,1.6c0.7,0.4,1.5,0.6,2.5,0.6
		c1,0,1.8-0.2,2.5-0.6c0.7-0.4,1.3-0.9,1.7-1.6c0.5-0.6,0.8-1.4,1-2.2C258.7,24.5,258.8,23.7,258.8,22.8z"/>
	<path class="st3" d="M289.4,31.6V20.9c0-0.7-0.1-1.4-0.3-1.9c-0.2-0.6-0.4-1.1-0.8-1.6c-0.3-0.4-0.8-0.8-1.3-1
		c-0.5-0.3-1.2-0.4-1.9-0.4c-0.9,0-1.6,0.2-2.2,0.5c-0.6,0.3-1.1,0.8-1.5,1.3s-0.7,1.2-0.9,1.9c-0.2,0.7-0.3,1.4-0.3,2.2v9.7h-3
		V20.9c0-0.7-0.1-1.4-0.3-1.9c-0.2-0.6-0.4-1.1-0.8-1.6c-0.4-0.4-0.8-0.8-1.3-1c-0.5-0.3-1.2-0.4-1.9-0.4c-0.8,0-1.6,0.2-2.2,0.5
		c-0.6,0.3-1.1,0.8-1.6,1.3c-0.4,0.5-0.7,1.2-0.9,1.9c-0.2,0.7-0.3,1.4-0.3,2.2v9.7h-3V14h3v3.4c0.5-1.3,1.3-2.3,2.4-2.9
		c1.1-0.6,2.3-0.9,3.7-0.9c1.6,0,2.9,0.4,3.9,1.2c1,0.8,1.7,1.9,2,3.2c0.5-1.5,1.3-2.6,2.3-3.3c1.1-0.7,2.4-1.1,4-1.1
		c1.9,0,3.4,0.6,4.5,1.7c1.1,1.1,1.7,2.6,1.7,4.5v11.9H289.4z"/>
	<path class="st3" d="M311,28.1c-0.4,0.8-1,1.6-1.7,2.1c-0.7,0.6-1.5,1-2.4,1.3S305,32,303.9,32c-1.3,0-2.5-0.2-3.5-0.7
		c-1-0.5-1.9-1.1-2.7-1.9c-0.7-0.8-1.3-1.8-1.7-2.9c-0.4-1.1-0.6-2.3-0.6-3.5c0-1.3,0.2-2.6,0.6-3.7c0.4-1.1,0.9-2.2,1.7-3
		c0.7-0.9,1.6-1.5,2.7-2c1.1-0.5,2.3-0.7,3.7-0.7c1,0,1.9,0.1,2.8,0.4s1.7,0.7,2.3,1.2c0.7,0.5,1.2,1.2,1.7,2
		c0.4,0.8,0.7,1.7,0.8,2.7l-13.3,4.8c0.1,0.7,0.3,1.4,0.6,2c0.3,0.6,0.6,1.2,1.1,1.6c0.4,0.5,1,0.8,1.6,1.1c0.6,0.3,1.3,0.4,2.2,0.4
		c0.7,0,1.3-0.1,1.9-0.3s1.1-0.5,1.5-0.9c0.4-0.4,0.8-0.9,1.1-1.4c0.3-0.6,0.4-1.2,0.5-1.9h2.8C311.7,26.3,311.4,27.2,311,28.1z
		 M307.1,16.7c-0.8-0.6-1.7-0.8-2.9-0.8c-1,0-1.8,0.2-2.5,0.5c-0.7,0.4-1.3,0.8-1.8,1.4c-0.5,0.6-0.8,1.3-1.1,2.1
		c-0.2,0.8-0.4,1.6-0.4,2.5v0.5l10.2-3.7C308.4,18.1,307.9,17.3,307.1,16.7z"/>
	<path class="st3" d="M314.9,31.6V7h3v24.6H314.9z"/>
	<path class="st3" d="M336.5,28.1c-0.4,0.8-1,1.6-1.7,2.1c-0.7,0.6-1.5,1-2.4,1.3s-1.9,0.5-2.9,0.5c-1.3,0-2.5-0.2-3.5-0.7
		c-1-0.5-1.9-1.1-2.7-1.9c-0.7-0.8-1.3-1.8-1.7-2.9c-0.4-1.1-0.6-2.3-0.6-3.5c0-1.3,0.2-2.6,0.6-3.7c0.4-1.1,0.9-2.2,1.7-3
		c0.7-0.9,1.6-1.5,2.7-2c1.1-0.5,2.3-0.7,3.7-0.7c1,0,1.9,0.1,2.8,0.4s1.7,0.7,2.3,1.2c0.7,0.5,1.2,1.2,1.7,2
		c0.4,0.8,0.7,1.7,0.8,2.7l-13.3,4.8c0.1,0.7,0.3,1.4,0.6,2c0.3,0.6,0.6,1.2,1.1,1.6c0.4,0.5,1,0.8,1.6,1.1c0.6,0.3,1.3,0.4,2.2,0.4
		c0.7,0,1.3-0.1,1.9-0.3s1.1-0.5,1.5-0.9c0.4-0.4,0.8-0.9,1.1-1.4c0.3-0.6,0.4-1.2,0.5-1.9h2.8C337.2,26.3,336.9,27.2,336.5,28.1z
		 M332.6,16.7c-0.8-0.6-1.7-0.8-2.9-0.8c-1,0-1.8,0.2-2.5,0.5c-0.7,0.4-1.3,0.8-1.8,1.4c-0.5,0.6-0.8,1.3-1.1,2.1
		c-0.2,0.8-0.4,1.6-0.4,2.5v0.5l10.2-3.7C333.9,18.1,333.4,17.3,332.6,16.7z"/>
	<path class="st3" d="M354.4,26.6c0,1-0.2,1.9-0.6,2.6c-0.4,0.7-1,1.2-1.7,1.7c-0.7,0.4-1.5,0.7-2.4,0.9c-0.9,0.2-1.7,0.3-2.6,0.3
		c-1.1,0-2.1-0.1-3.1-0.4c-0.9-0.2-1.8-0.6-2.4-1.1s-1.2-1.2-1.6-2c-0.4-0.8-0.6-1.8-0.6-2.9h2.8c0,1.5,0.5,2.6,1.4,3.3
		c0.9,0.7,2.1,1.1,3.6,1.1c0.5,0,1-0.1,1.5-0.2c0.5-0.1,1-0.3,1.4-0.5c0.4-0.2,0.8-0.6,1.1-0.9c0.3-0.4,0.4-0.9,0.4-1.4
		c0-0.6-0.1-1.1-0.4-1.4c-0.3-0.4-0.6-0.7-1.1-0.9s-1-0.4-1.6-0.6c-0.6-0.2-1.3-0.3-2.1-0.5c-0.9-0.2-1.8-0.4-2.6-0.6
		c-0.8-0.2-1.5-0.5-2-0.9c-0.6-0.4-1-0.8-1.4-1.4c-0.3-0.6-0.5-1.3-0.5-2.2c0-0.7,0.2-1.4,0.5-2c0.3-0.6,0.8-1.1,1.4-1.5
		c0.6-0.4,1.3-0.8,2.2-1c0.8-0.2,1.8-0.3,2.8-0.3c1,0,1.9,0.1,2.7,0.3c0.9,0.2,1.6,0.5,2.3,1c0.6,0.4,1.2,1,1.6,1.7
		c0.4,0.7,0.6,1.6,0.6,2.6h-2.7c0-1.3-0.4-2.3-1.3-2.9c-0.8-0.6-1.9-0.9-3.1-0.9c-0.9,0-1.6,0.1-2.1,0.3c-0.5,0.2-0.9,0.5-1.2,0.8
		c-0.3,0.3-0.5,0.6-0.6,0.9c-0.1,0.3-0.2,0.6-0.2,0.8c0,0.7,0.2,1.2,0.7,1.6c0.5,0.4,1.1,0.7,1.8,1c0.7,0.2,1.4,0.4,2.2,0.6
		c0.8,0.1,1.4,0.3,1.9,0.4c0.6,0.2,1.3,0.4,1.9,0.6c0.6,0.2,1.1,0.5,1.6,0.9c0.5,0.4,0.9,0.8,1.2,1.3
		C354.2,25.2,354.4,25.8,354.4,26.6z"/>
	<path class="st3" d="M370.9,26.6c0,1-0.2,1.9-0.6,2.6s-1,1.2-1.7,1.7c-0.7,0.4-1.5,0.7-2.4,0.9c-0.9,0.2-1.7,0.3-2.6,0.3
		c-1.1,0-2.1-0.1-3.1-0.4c-0.9-0.2-1.8-0.6-2.4-1.1c-0.7-0.5-1.2-1.2-1.6-2c-0.4-0.8-0.6-1.8-0.6-2.9h2.8c0,1.5,0.5,2.6,1.4,3.3
		c0.9,0.7,2.1,1.1,3.6,1.1c0.5,0,1-0.1,1.5-0.2c0.5-0.1,1-0.3,1.4-0.5c0.4-0.2,0.8-0.6,1.1-0.9c0.3-0.4,0.4-0.9,0.4-1.4
		c0-0.6-0.1-1.1-0.4-1.4c-0.3-0.4-0.6-0.7-1.1-0.9s-1-0.4-1.6-0.6c-0.6-0.2-1.3-0.3-2.1-0.5c-0.9-0.2-1.8-0.4-2.6-0.6
		c-0.8-0.2-1.5-0.5-2-0.9c-0.6-0.4-1-0.8-1.4-1.4c-0.3-0.6-0.5-1.3-0.5-2.2c0-0.7,0.2-1.4,0.5-2c0.3-0.6,0.8-1.1,1.4-1.5
		c0.6-0.4,1.3-0.8,2.2-1c0.8-0.2,1.8-0.3,2.8-0.3c1,0,1.9,0.1,2.7,0.3c0.9,0.2,1.6,0.5,2.3,1c0.6,0.4,1.2,1,1.6,1.7
		c0.4,0.7,0.6,1.6,0.6,2.6h-2.7c0-1.3-0.4-2.3-1.3-2.9c-0.8-0.6-1.9-0.9-3.1-0.9c-0.9,0-1.6,0.1-2.1,0.3c-0.5,0.2-0.9,0.5-1.2,0.8
		c-0.3,0.3-0.5,0.6-0.6,0.9c-0.1,0.3-0.2,0.6-0.2,0.8c0,0.7,0.2,1.2,0.7,1.6c0.5,0.4,1.1,0.7,1.8,1c0.7,0.2,1.4,0.4,2.2,0.6
		c0.8,0.1,1.4,0.3,1.9,0.4c0.6,0.2,1.3,0.4,1.9,0.6c0.6,0.2,1.1,0.5,1.6,0.9c0.5,0.4,0.9,0.8,1.2,1.3
		C370.8,25.2,370.9,25.8,370.9,26.6z"/>
	<path class="st3" d="M401.1,23.1c0,1.3-0.2,2.5-0.6,3.6c-0.4,1.1-1,2-1.7,2.9c-0.7,0.8-1.6,1.4-2.7,1.9c-1,0.5-2.2,0.7-3.5,0.7
		c-1.3,0-2.5-0.2-3.5-0.7c-1-0.5-1.8-1.2-2.4-2.1v9.5h-3V14h3v2.2c0.6-0.8,1.5-1.5,2.4-1.9c1-0.4,2.1-0.6,3.2-0.6
		c1.4,0,2.6,0.2,3.7,0.7s2,1.2,2.8,2c0.8,0.9,1.3,1.9,1.7,3C400.9,20.5,401.1,21.7,401.1,23.1z M398.2,23c0-0.9-0.1-1.8-0.3-2.7
		c-0.2-0.9-0.6-1.6-1.1-2.3c-0.5-0.7-1.1-1.2-1.9-1.6s-1.8-0.6-2.9-0.6c-0.6,0-1.2,0.1-1.8,0.3c-0.6,0.2-1.2,0.5-1.7,0.8
		s-0.9,0.8-1.2,1.3c-0.3,0.5-0.5,1-0.5,1.6v5.4c0,0.7,0.2,1.3,0.5,1.9c0.3,0.6,0.7,1,1.2,1.4c0.5,0.4,1.1,0.7,1.7,0.9
		c0.6,0.2,1.3,0.3,2,0.3c1,0,1.9-0.2,2.7-0.5c0.8-0.3,1.4-0.8,1.9-1.4c0.5-0.6,0.9-1.3,1.1-2.1C398,24.9,398.2,24,398.2,23z"/>
	<path class="st3" d="M419.1,28.1c-0.4,0.8-1,1.6-1.7,2.1c-0.7,0.6-1.5,1-2.4,1.3c-0.9,0.3-1.9,0.5-2.9,0.5c-1.3,0-2.5-0.2-3.5-0.7
		c-1-0.5-1.9-1.1-2.7-1.9c-0.7-0.8-1.3-1.8-1.7-2.9s-0.6-2.3-0.6-3.5c0-1.3,0.2-2.6,0.6-3.7c0.4-1.1,0.9-2.2,1.7-3
		c0.7-0.9,1.6-1.5,2.7-2s2.3-0.7,3.7-0.7c1,0,1.9,0.1,2.8,0.4c0.9,0.3,1.7,0.7,2.3,1.2c0.7,0.5,1.2,1.2,1.7,2
		c0.4,0.8,0.7,1.7,0.8,2.7l-13.3,4.8c0.1,0.7,0.3,1.4,0.6,2c0.3,0.6,0.6,1.2,1.1,1.6c0.4,0.5,1,0.8,1.6,1.1c0.6,0.3,1.3,0.4,2.2,0.4
		c0.7,0,1.3-0.1,1.9-0.3c0.6-0.2,1.1-0.5,1.5-0.9c0.4-0.4,0.8-0.9,1.1-1.4c0.3-0.6,0.4-1.2,0.5-1.9h2.8
		C419.8,26.3,419.6,27.2,419.1,28.1z M415.3,16.7c-0.8-0.6-1.7-0.8-2.9-0.8c-1,0-1.8,0.2-2.5,0.5c-0.7,0.4-1.3,0.8-1.8,1.4
		c-0.5,0.6-0.8,1.3-1.1,2.1c-0.2,0.8-0.4,1.6-0.4,2.5v0.5l10.2-3.7C416.6,18.1,416,17.3,415.3,16.7z"/>
	<path class="st3" d="M439.7,22.8c0,1.2-0.2,2.4-0.5,3.5c-0.4,1.1-0.9,2.1-1.6,3c-0.7,0.9-1.6,1.5-2.7,2s-2.3,0.8-3.8,0.8
		c-1.4,0-2.7-0.3-3.8-0.8c-1.1-0.5-2-1.2-2.7-2c-0.7-0.9-1.3-1.8-1.6-3c-0.4-1.1-0.5-2.3-0.5-3.5c0-1.2,0.2-2.4,0.5-3.5
		c0.4-1.1,0.9-2.1,1.6-3c0.7-0.9,1.6-1.5,2.7-2c1.1-0.5,2.3-0.8,3.8-0.8c1.4,0,2.7,0.3,3.8,0.8s2,1.2,2.7,2c0.7,0.9,1.3,1.8,1.6,3
		C439.5,20.4,439.7,21.6,439.7,22.8z M436.7,22.8c0-0.9-0.1-1.7-0.3-2.5c-0.2-0.8-0.6-1.6-1-2.2c-0.5-0.7-1-1.2-1.7-1.6
		c-0.7-0.4-1.5-0.6-2.5-0.6c-1,0-1.8,0.2-2.5,0.6c-0.7,0.4-1.3,0.9-1.7,1.6c-0.5,0.7-0.8,1.4-1,2.2c-0.2,0.8-0.3,1.7-0.3,2.5
		c0,0.9,0.1,1.7,0.3,2.5c0.2,0.8,0.6,1.6,1,2.2c0.5,0.6,1,1.2,1.7,1.6c0.7,0.4,1.5,0.6,2.5,0.6c1,0,1.8-0.2,2.5-0.6
		c0.7-0.4,1.3-0.9,1.7-1.6c0.5-0.6,0.8-1.4,1-2.2C436.6,24.5,436.7,23.7,436.7,22.8z"/>
	<path class="st3" d="M460.1,23.1c0,1.3-0.2,2.5-0.6,3.6c-0.4,1.1-1,2-1.7,2.9c-0.7,0.8-1.6,1.4-2.7,1.9c-1,0.5-2.2,0.7-3.5,0.7
		c-1.3,0-2.5-0.2-3.5-0.7c-1-0.5-1.8-1.2-2.4-2.1v9.5h-3V14h3v2.2c0.6-0.8,1.5-1.5,2.4-1.9c1-0.4,2.1-0.6,3.2-0.6
		c1.4,0,2.6,0.2,3.7,0.7s2,1.2,2.8,2c0.8,0.9,1.3,1.9,1.7,3C459.9,20.5,460.1,21.7,460.1,23.1z M457.1,23c0-0.9-0.1-1.8-0.3-2.7
		c-0.2-0.9-0.6-1.6-1.1-2.3c-0.5-0.7-1.1-1.2-1.9-1.6s-1.8-0.6-2.9-0.6c-0.6,0-1.2,0.1-1.8,0.3c-0.6,0.2-1.2,0.5-1.7,0.8
		s-0.9,0.8-1.2,1.3c-0.3,0.5-0.5,1-0.5,1.6v5.4c0,0.7,0.2,1.3,0.5,1.9c0.3,0.6,0.7,1,1.2,1.4c0.5,0.4,1.1,0.7,1.7,0.9
		c0.6,0.2,1.3,0.3,2,0.3c1,0,1.9-0.2,2.7-0.5c0.8-0.3,1.4-0.8,1.9-1.4c0.5-0.6,0.9-1.3,1.1-2.1C457,24.9,457.1,24,457.1,23z"/>
	<path class="st3" d="M463.2,31.6V7h3v24.6H463.2z"/>
	<path class="st3" d="M484.8,28.1c-0.4,0.8-1,1.6-1.7,2.1c-0.7,0.6-1.5,1-2.4,1.3c-0.9,0.3-1.9,0.5-2.9,0.5c-1.3,0-2.5-0.2-3.5-0.7
		c-1-0.5-1.9-1.1-2.7-1.9c-0.7-0.8-1.3-1.8-1.7-2.9s-0.6-2.3-0.6-3.5c0-1.3,0.2-2.6,0.6-3.7c0.4-1.1,0.9-2.2,1.7-3
		c0.7-0.9,1.6-1.5,2.7-2s2.3-0.7,3.7-0.7c1,0,1.9,0.1,2.8,0.4c0.9,0.3,1.7,0.7,2.3,1.2c0.7,0.5,1.2,1.2,1.7,2
		c0.4,0.8,0.7,1.7,0.8,2.7l-13.3,4.8c0.1,0.7,0.3,1.4,0.6,2c0.3,0.6,0.6,1.2,1.1,1.6c0.4,0.5,1,0.8,1.6,1.1c0.6,0.3,1.3,0.4,2.2,0.4
		c0.7,0,1.3-0.1,1.9-0.3c0.6-0.2,1.1-0.5,1.5-0.9c0.4-0.4,0.8-0.9,1.1-1.4c0.3-0.6,0.4-1.2,0.5-1.9h2.8
		C485.5,26.3,485.2,27.2,484.8,28.1z M480.9,16.7c-0.8-0.6-1.7-0.8-2.9-0.8c-1,0-1.8,0.2-2.5,0.5c-0.7,0.4-1.3,0.8-1.8,1.4
		c-0.5,0.6-0.8,1.3-1.1,2.1c-0.2,0.8-0.4,1.6-0.4,2.5v0.5l10.2-3.7C482.2,18.1,481.7,17.3,480.9,16.7z"/>
	<path class="st3" d="M239.8,72.6v-2.4c-0.6,0.9-1.4,1.6-2.4,2.1c-1,0.5-2.2,0.7-3.5,0.7c-1.3,0-2.4-0.2-3.5-0.7
		c-1-0.5-1.9-1.1-2.7-1.9c-0.7-0.8-1.3-1.8-1.7-2.9c-0.4-1.1-0.6-2.3-0.6-3.6c0-1.3,0.2-2.6,0.6-3.7c0.4-1.1,1-2.2,1.7-3
		c0.8-0.9,1.7-1.5,2.7-2c1.1-0.5,2.3-0.7,3.7-0.7c1.2,0,2.2,0.2,3.2,0.6c1,0.4,1.8,1.1,2.4,1.9V55h3v17.6H239.8z M239.8,60.9
		c0-0.6-0.2-1.1-0.5-1.6c-0.3-0.5-0.7-0.9-1.2-1.3c-0.5-0.4-1.1-0.6-1.7-0.8c-0.6-0.2-1.2-0.3-1.8-0.3c-1.2,0-2.1,0.2-2.9,0.6
		c-0.8,0.4-1.4,0.9-1.9,1.6s-0.8,1.4-1.1,2.3c-0.2,0.9-0.3,1.7-0.3,2.7c0,1,0.1,1.8,0.4,2.7c0.3,0.8,0.6,1.5,1.1,2.1
		c0.5,0.6,1.1,1.1,1.9,1.4c0.8,0.3,1.6,0.5,2.7,0.5c0.7,0,1.3-0.1,2-0.3c0.6-0.2,1.2-0.5,1.7-0.9s0.9-0.9,1.2-1.4
		c0.3-0.6,0.5-1.2,0.5-1.9V60.9z"/>
	<path class="st3" d="M254.4,57c-0.8,0-1.6,0.2-2.2,0.5c-0.6,0.3-1.1,0.8-1.6,1.3c-0.4,0.5-0.7,1.2-0.9,1.9
		c-0.2,0.7-0.3,1.4-0.3,2.2v9.7h-3V55h3v3.4c0.5-1.3,1.3-2.3,2.4-2.9c1-0.6,2.3-0.9,3.7-0.9c0.1,0,0.3,0,0.4,0c0.1,0,0.3,0,0.4,0
		L254.4,57z"/>
	<path class="st3" d="M271.7,63.8c0,1.2-0.2,2.4-0.5,3.5c-0.4,1.1-0.9,2.1-1.6,3c-0.7,0.9-1.6,1.5-2.7,2c-1.1,0.5-2.3,0.8-3.8,0.8
		c-1.4,0-2.7-0.3-3.8-0.8c-1.1-0.5-2-1.2-2.7-2c-0.7-0.9-1.3-1.8-1.6-3c-0.4-1.1-0.5-2.3-0.5-3.5c0-1.2,0.2-2.4,0.5-3.5
		c0.4-1.1,0.9-2.1,1.6-3c0.7-0.9,1.6-1.5,2.7-2c1.1-0.5,2.3-0.8,3.8-0.8c1.4,0,2.7,0.3,3.8,0.8c1.1,0.5,2,1.2,2.7,2
		c0.7,0.9,1.3,1.8,1.6,3C271.6,61.4,271.7,62.6,271.7,63.8z M268.8,63.8c0-0.9-0.1-1.7-0.3-2.5c-0.2-0.8-0.6-1.6-1-2.2
		c-0.5-0.7-1-1.2-1.7-1.6c-0.7-0.4-1.5-0.6-2.5-0.6c-1,0-1.8,0.2-2.5,0.6c-0.7,0.4-1.3,0.9-1.7,1.6c-0.5,0.7-0.8,1.4-1,2.2
		s-0.3,1.7-0.3,2.5c0,0.9,0.1,1.7,0.3,2.5c0.2,0.8,0.6,1.6,1,2.2c0.5,0.6,1,1.2,1.7,1.6c0.7,0.4,1.5,0.6,2.5,0.6
		c1,0,1.8-0.2,2.5-0.6c0.7-0.4,1.3-0.9,1.7-1.6c0.5-0.6,0.8-1.4,1-2.2C268.7,65.5,268.8,64.7,268.8,63.8z"/>
	<path class="st3" d="M287.1,72.6v-3.4c-0.5,1.3-1.3,2.3-2.4,2.9c-1,0.6-2.3,0.9-3.7,0.9c-1.9,0-3.4-0.6-4.5-1.7
		c-1.1-1.1-1.7-2.6-1.7-4.5V55h3v10.7c0,0.7,0.1,1.4,0.3,2c0.2,0.6,0.4,1.1,0.8,1.6c0.3,0.4,0.8,0.8,1.3,1c0.5,0.3,1.2,0.4,1.9,0.4
		c0.8,0,1.6-0.2,2.2-0.5c0.6-0.3,1.1-0.8,1.6-1.3c0.4-0.5,0.7-1.2,0.9-1.9c0.2-0.7,0.3-1.4,0.3-2.2V55h3v17.6H287.1z"/>
	<path class="st3" d="M306.1,72.6V61.9c0-0.7-0.1-1.4-0.3-2c-0.2-0.6-0.4-1.1-0.8-1.6c-0.4-0.4-0.8-0.8-1.3-1
		c-0.5-0.3-1.2-0.4-1.9-0.4c-0.8,0-1.6,0.2-2.2,0.5c-0.6,0.3-1.1,0.8-1.6,1.3c-0.4,0.5-0.7,1.2-0.9,1.9c-0.2,0.7-0.3,1.4-0.3,2.2
		v9.7h-3V55h3l0,3.4c0.5-1.3,1.3-2.3,2.4-2.9c1-0.6,2.3-0.9,3.7-0.9c1.9,0,3.4,0.6,4.5,1.7c1.1,1.1,1.7,2.6,1.7,4.5v11.9H306.1z"/>
	<path class="st3" d="M326.5,72.6v-2.4c-0.6,0.9-1.4,1.6-2.4,2.1c-1,0.5-2.2,0.7-3.5,0.7c-1.3,0-2.4-0.2-3.5-0.7
		c-1-0.5-1.9-1.1-2.7-1.9c-0.7-0.8-1.3-1.8-1.7-2.9c-0.4-1.1-0.6-2.3-0.6-3.6c0-1.3,0.2-2.6,0.6-3.7c0.4-1.1,1-2.2,1.7-3
		c0.8-0.9,1.7-1.5,2.7-2c1.1-0.5,2.3-0.7,3.7-0.7c1.2,0,2.2,0.2,3.2,0.6c1,0.4,1.8,1.1,2.4,1.9V48h3v24.6H326.5z M326.5,60.9
		c0-0.6-0.2-1.1-0.5-1.6c-0.3-0.5-0.7-0.9-1.2-1.3c-0.5-0.4-1.1-0.6-1.7-0.8c-0.6-0.2-1.2-0.3-1.8-0.3c-1.2,0-2.1,0.2-2.9,0.6
		c-0.8,0.4-1.4,0.9-1.9,1.6s-0.8,1.4-1.1,2.3c-0.2,0.9-0.3,1.7-0.3,2.7c0,1,0.1,1.8,0.4,2.7c0.3,0.8,0.6,1.5,1.1,2.1
		c0.5,0.6,1.1,1.1,1.9,1.4c0.8,0.3,1.6,0.5,2.7,0.5c0.7,0,1.3-0.1,2-0.3c0.6-0.2,1.2-0.5,1.7-0.9s0.9-0.9,1.2-1.4
		c0.3-0.6,0.5-1.2,0.5-1.9V60.9z"/>
	<path class="st3" d="M346.3,57v15.6h-3V57h-1.8v-2h1.8v-4.2l3-1.9v6h1.8v2H346.3z"/>
	<path class="st3" d="M362.3,72.6V61.9c0-0.7-0.1-1.4-0.3-2c-0.2-0.6-0.4-1.1-0.8-1.6c-0.4-0.4-0.8-0.8-1.3-1
		c-0.5-0.3-1.2-0.4-1.9-0.4c-0.8,0-1.6,0.2-2.2,0.5c-0.6,0.3-1.1,0.8-1.6,1.3c-0.4,0.5-0.7,1.2-0.9,1.9c-0.2,0.7-0.3,1.4-0.3,2.2
		v9.7h-3V48h3l0,10.4c0.5-1.3,1.3-2.3,2.4-2.9c1-0.6,2.3-0.9,3.7-0.9c1.9,0,3.4,0.6,4.5,1.7c1.1,1.1,1.7,2.6,1.7,4.5v11.9H362.3z"/>
	<path class="st3" d="M383.8,69.1c-0.4,0.8-1,1.6-1.7,2.1c-0.7,0.6-1.5,1-2.4,1.3c-0.9,0.3-1.9,0.5-2.9,0.5c-1.3,0-2.5-0.2-3.5-0.7
		c-1-0.5-1.9-1.1-2.7-1.9c-0.7-0.8-1.3-1.8-1.7-2.9s-0.6-2.3-0.6-3.5c0-1.3,0.2-2.6,0.6-3.7c0.4-1.1,0.9-2.2,1.7-3
		c0.7-0.9,1.6-1.5,2.7-2s2.3-0.7,3.7-0.7c1,0,1.9,0.1,2.8,0.4c0.9,0.3,1.7,0.7,2.3,1.2c0.7,0.5,1.2,1.2,1.7,2
		c0.4,0.8,0.7,1.7,0.8,2.7l-13.3,4.8c0.1,0.7,0.3,1.4,0.6,2c0.3,0.6,0.6,1.2,1.1,1.6c0.4,0.5,1,0.8,1.6,1.1c0.6,0.3,1.3,0.4,2.2,0.4
		c0.7,0,1.3-0.1,1.9-0.3c0.6-0.2,1.1-0.5,1.5-0.9c0.4-0.4,0.8-0.9,1.1-1.4c0.3-0.6,0.4-1.2,0.5-1.9h2.8
		C384.5,67.3,384.3,68.2,383.8,69.1z M379.9,57.7c-0.8-0.6-1.7-0.8-2.9-0.8c-1,0-1.8,0.2-2.5,0.5c-0.7,0.4-1.3,0.8-1.8,1.4
		c-0.5,0.6-0.8,1.3-1.1,2.1c-0.2,0.8-0.4,1.6-0.4,2.5v0.5l10.2-3.7C381.3,59.1,380.7,58.3,379.9,57.7z"/>
	<path class="st3" d="M422.5,72.6v-3.4c-0.5,1.3-1.3,2.3-2.4,2.9s-2.3,0.9-3.7,0.9c-1.6,0-2.9-0.4-3.9-1.2c-1-0.8-1.7-1.9-2-3.2
		c-0.5,1.5-1.3,2.6-2.3,3.3s-2.4,1.1-4,1.1c-1.9,0-3.4-0.6-4.5-1.7c-1.1-1.1-1.7-2.6-1.7-4.5V55h3v10.7c0,0.7,0.1,1.4,0.2,2
		c0.2,0.6,0.4,1.1,0.8,1.6c0.4,0.4,0.8,0.8,1.3,1c0.5,0.3,1.2,0.4,1.9,0.4c0.8,0,1.6-0.2,2.2-0.5c0.6-0.3,1.1-0.8,1.6-1.3
		c0.4-0.5,0.7-1.2,0.9-1.9c0.2-0.7,0.3-1.4,0.3-2.2V55h3v10.7c0,0.7,0.1,1.4,0.3,2c0.2,0.6,0.4,1.1,0.8,1.6c0.3,0.4,0.8,0.8,1.3,1
		c0.5,0.3,1.2,0.4,1.9,0.4c0.8,0,1.6-0.2,2.2-0.5c0.6-0.3,1.2-0.8,1.6-1.3c0.4-0.5,0.7-1.2,0.9-1.9c0.2-0.7,0.3-1.4,0.3-2.2V55h3
		v17.6H422.5z"/>
	<path class="st3" d="M445.8,63.8c0,1.2-0.2,2.4-0.5,3.5c-0.4,1.1-0.9,2.1-1.6,3c-0.7,0.9-1.6,1.5-2.7,2s-2.3,0.8-3.8,0.8
		c-1.4,0-2.7-0.3-3.8-0.8c-1.1-0.5-2-1.2-2.7-2c-0.7-0.9-1.3-1.8-1.6-3c-0.4-1.1-0.5-2.3-0.5-3.5c0-1.2,0.2-2.4,0.5-3.5
		c0.4-1.1,0.9-2.1,1.6-3c0.7-0.9,1.6-1.5,2.7-2c1.1-0.5,2.3-0.8,3.8-0.8c1.4,0,2.7,0.3,3.8,0.8s2,1.2,2.7,2c0.7,0.9,1.3,1.8,1.6,3
		C445.6,61.4,445.8,62.6,445.8,63.8z M442.8,63.8c0-0.9-0.1-1.7-0.3-2.5c-0.2-0.8-0.6-1.6-1-2.2c-0.5-0.7-1-1.2-1.7-1.6
		c-0.7-0.4-1.5-0.6-2.5-0.6c-1,0-1.8,0.2-2.5,0.6c-0.7,0.4-1.3,0.9-1.7,1.6c-0.5,0.7-0.8,1.4-1,2.2c-0.2,0.8-0.3,1.7-0.3,2.5
		c0,0.9,0.1,1.7,0.3,2.5c0.2,0.8,0.6,1.6,1,2.2c0.5,0.6,1,1.2,1.7,1.6c0.7,0.4,1.5,0.6,2.5,0.6c1,0,1.8-0.2,2.5-0.6
		c0.7-0.4,1.3-0.9,1.7-1.6c0.5-0.6,0.8-1.4,1-2.2C442.7,65.5,442.8,64.7,442.8,63.8z"/>
	<path class="st3" d="M456.8,57c-0.8,0-1.6,0.2-2.2,0.5s-1.1,0.8-1.6,1.3c-0.4,0.5-0.7,1.2-0.9,1.9c-0.2,0.7-0.3,1.4-0.3,2.2v9.7h-3
		V55h3v3.4c0.5-1.3,1.3-2.3,2.4-2.9c1-0.6,2.3-0.9,3.7-0.9c0.1,0,0.3,0,0.4,0s0.3,0,0.4,0L456.8,57z"/>
	<path class="st3" d="M460.6,72.6V48h3v24.6H460.6z"/>
	<path class="st3" d="M481,72.6v-2.4c-0.6,0.9-1.4,1.6-2.4,2.1c-1,0.5-2.2,0.7-3.5,0.7c-1.3,0-2.4-0.2-3.5-0.7
		c-1-0.5-1.9-1.1-2.7-1.9c-0.7-0.8-1.3-1.8-1.7-2.9c-0.4-1.1-0.6-2.3-0.6-3.6c0-1.3,0.2-2.6,0.6-3.7c0.4-1.1,1-2.2,1.7-3
		c0.8-0.9,1.7-1.5,2.7-2s2.3-0.7,3.7-0.7c1.2,0,2.2,0.2,3.2,0.6c1,0.4,1.8,1.1,2.4,1.9V48h3v24.6H481z M481,60.9
		c0-0.6-0.2-1.1-0.5-1.6c-0.3-0.5-0.7-0.9-1.2-1.3s-1.1-0.6-1.7-0.8c-0.6-0.2-1.2-0.3-1.8-0.3c-1.2,0-2.1,0.2-2.9,0.6
		c-0.8,0.4-1.4,0.9-1.9,1.6c-0.5,0.7-0.8,1.4-1.1,2.3c-0.2,0.9-0.3,1.7-0.3,2.7c0,1,0.1,1.8,0.4,2.7c0.3,0.8,0.6,1.5,1.1,2.1
		c0.5,0.6,1.1,1.1,1.9,1.4c0.8,0.3,1.6,0.5,2.7,0.5c0.7,0,1.3-0.1,2-0.3c0.6-0.2,1.2-0.5,1.7-0.9c0.5-0.4,0.9-0.9,1.2-1.4
		c0.3-0.6,0.5-1.2,0.5-1.9V60.9z"/>
</g>
<g>
	<path class="st4" d="M292.8,195.7c-0.1-1.2-0.5-2.3-1-3.1c-0.5-0.8-1.2-1.4-1.9-1.6c-0.7-0.3-1.5-0.2-2.4,0.2
		c-0.9,0.4-1.7,1.1-2.5,2.2c-1.2,1.7-2.1,4.1-2.6,7.2c-0.7,4.6-0.7,8.7-0.1,12.5c0.4,2.2,1,4,1.9,5.4c0.9,1.4,1.8,2.2,2.9,2.6
		c1,0.3,2.2,0.1,3.4-0.7c1.2-0.8,2.4-2.3,3.5-4.5c1-1.8,1.8-3.8,2.4-6.2c0.1-0.2,0.2-0.4,0.4-0.5s0.4-0.1,0.6-0.1
		c0.2,0.1,0.4,0.2,0.5,0.4c0.1,0.2,0.1,0.4,0.1,0.6c-0.6,2.4-1.5,4.6-2.5,6.5c-1.3,2.4-2.7,4.1-4.2,5.1c-1.6,1-3.1,1.3-4.7,0.8
		c-1.4-0.5-2.7-1.5-3.7-3.2c-1-1.6-1.7-3.7-2.2-6.1c-0.7-3.9-0.6-8.2,0-12.9c0.5-3.4,1.5-6.1,2.9-8c1-1.3,2.1-2.3,3.3-2.8
		c1.2-0.5,2.3-0.6,3.5-0.1c1.1,0.4,2,1.1,2.7,2.2c0.7,1.1,1.1,2.4,1.3,3.9c0,0.2,0,0.4-0.2,0.6c-0.1,0.2-0.3,0.3-0.6,0.3
		c-0.2,0-0.4,0-0.6-0.2C293,196.2,292.9,196,292.8,195.7z"/>
	<path class="st4" d="M305.8,199c1.9,0.4,3.5,1.2,4.8,2.4c1.3,1.2,2.2,2.6,2.7,4.2c0.5,1.6,0.7,3.2,0.6,4.9
		c-0.1,2.7-0.8,5.1-2.2,7.3c-1.4,2.2-3.2,3.4-5.4,3.6c-2.4,0.3-4.3-0.6-5.7-2.7c-1.1-1.7-1.7-4-1.6-6.9c0-2.7,0.5-5.3,1.6-7.8
		c1-2.5,2.5-4.3,4.3-5.2C305.2,198.6,305.5,198.7,305.8,199z M305.2,200.5c-1.4,0.9-2.5,2.4-3.3,4.5c-0.8,2.1-1.3,4.4-1.3,6.7
		c0,2.5,0.5,4.5,1.4,6c1,1.5,2.3,2.2,4.2,2c1.7-0.2,3.1-1.2,4.2-3c1.2-1.8,1.8-3.9,1.9-6.3c0.1-2.5-0.5-4.7-1.6-6.5
		C309.4,202.1,307.6,201,305.2,200.5z"/>
	<path class="st4" d="M317.2,208.4c0.7-2.4,1.6-4.6,2.7-6.4c1-1.7,2-2.8,3.1-3.5c1.4-0.9,2.8-0.8,4.2,0.3c1,0.7,1.8,2.1,2.4,4.1
		c0.4,1.5,0.8,3.5,1,5.9c0.1,1.2,0.2,2.5,0.3,3.9c0.1,1.4,0.1,2.8,0.1,4.3c0,1.5,0,2.4,0,2.7c0,0.2-0.1,0.4-0.2,0.6
		c-0.2,0.2-0.3,0.3-0.6,0.3c-0.2,0-0.4-0.1-0.6-0.2c-0.2-0.2-0.3-0.3-0.3-0.6c0-0.3,0-1.2,0-2.7c0-1.5-0.1-2.9-0.1-4.2
		s-0.1-2.7-0.3-3.9c-0.2-2.3-0.6-4.2-1-5.6c-0.5-1.6-1.1-2.7-1.7-3.3c-0.8-0.6-1.6-0.6-2.4-0.1c-0.8,0.5-1.6,1.4-2.4,2.9
		c-0.7,1.2-1.3,2.5-1.8,3.9c-0.5,1.4-0.9,2.6-1.1,3.5c-0.1,0.6-0.2,1.2-0.3,1.9c-0.1,0.6-0.2,1.3-0.2,2.1c0,0.8-0.1,1.4-0.1,1.8
		c0,0.5,0,1.2-0.1,2.2c0,1,0,1.6,0,2c0,0.1,0,0.2,0,0.3l0,0.1c0,0.1,0,0.1,0,0.2c-0.1,0.3-0.3,0.4-0.6,0.5c-0.4,0-0.7-0.1-0.8-0.4
		l-0.1-0.2c0,0,0-0.1-0.1-0.1l0-0.5l-0.1-2.1l-0.1-4c-0.2-6.5-0.5-10.9-0.7-13.2c0-0.2,0-0.4,0.2-0.6c0.1-0.2,0.3-0.3,0.6-0.3
		c0.2,0,0.4,0,0.6,0.2c0.2,0.1,0.3,0.3,0.3,0.6C316.9,202.6,317.1,205.3,317.2,208.4z"/>
	<path class="st4" d="M334,207.8c0.7-2.4,1.6-4.6,2.7-6.4c1-1.7,2-2.8,3.1-3.5c1.4-0.9,2.8-0.8,4.2,0.3c1,0.7,1.8,2.1,2.4,4.1
		c0.4,1.5,0.8,3.5,1,5.9c0.1,1.2,0.2,2.5,0.3,3.9c0.1,1.4,0.1,2.8,0.1,4.3s0,2.4,0,2.7c0,0.2-0.1,0.4-0.2,0.6
		c-0.2,0.2-0.3,0.3-0.6,0.3c-0.2,0-0.4-0.1-0.6-0.2c-0.2-0.2-0.3-0.3-0.3-0.6c0-0.3,0-1.2,0-2.7c0-1.5-0.1-2.9-0.1-4.2
		c-0.1-1.4-0.1-2.7-0.3-3.9c-0.2-2.3-0.6-4.2-1-5.6c-0.5-1.6-1.1-2.7-1.7-3.3c-0.8-0.6-1.6-0.6-2.4-0.1c-0.8,0.5-1.6,1.4-2.4,2.9
		c-0.7,1.2-1.3,2.5-1.8,3.9c-0.5,1.4-0.9,2.6-1.1,3.5c-0.1,0.6-0.2,1.2-0.3,1.9c-0.1,0.6-0.2,1.3-0.2,2.1c0,0.8-0.1,1.4-0.1,1.8
		c0,0.5,0,1.2-0.1,2.2c0,1,0,1.6,0,2c0,0.1,0,0.2,0,0.3l0,0.1c0,0.1,0,0.1,0,0.2c-0.1,0.3-0.3,0.4-0.6,0.5c-0.4,0-0.7-0.1-0.8-0.4
		l-0.1-0.2c0,0,0-0.1,0-0.1l0-0.5l-0.1-2.1l-0.1-4c-0.2-6.5-0.5-10.9-0.7-13.2c0-0.2,0-0.4,0.2-0.6c0.1-0.2,0.3-0.3,0.6-0.3
		s0.4,0,0.6,0.2c0.2,0.1,0.3,0.3,0.3,0.6C333.7,202.1,333.9,204.7,334,207.8z"/>
	<path class="st4" d="M349.2,206.6c0.3-2,0.7-3.7,1.5-5.3c1.3-2.7,3-4.3,5.1-4.6c1-0.2,1.8,0,2.5,0.4c0.7,0.4,1.2,1,1.5,1.8
		c0.5,1.4,0.4,3.1-0.4,5c-0.8,1.9-2,3.3-3.7,4.2c-1.5,0.8-3.2,1-5,0.5c0,0.3,0,0.6,0,0.9c0,2.8,0.6,5.1,1.6,6.8
		c1.2,1.7,2.7,2.4,4.8,2c1.2-0.2,2.3-0.8,3.3-1.7c1-0.9,1.8-2.1,2.5-3.4c0.1-0.2,0.3-0.3,0.5-0.4s0.4-0.1,0.6,0
		c0.2,0.1,0.3,0.3,0.4,0.5c0.1,0.2,0.1,0.4,0,0.6c-0.8,1.5-1.8,2.7-3,3.9c-1.2,1.1-2.5,1.8-4,2.1c-2.8,0.5-5-0.4-6.5-2.7
		c-1.3-1.9-1.9-4.5-1.9-7.7c0-0.5,0-1,0-1.5c-0.3-0.3-0.4-0.6-0.2-0.9C349,206.8,349.1,206.7,349.2,206.6z M350.8,206.9
		c1.5,0.5,2.8,0.4,4.1-0.3c1.3-0.7,2.3-1.9,2.9-3.4c0.6-1.5,0.7-2.7,0.4-3.8c-0.3-0.9-1.1-1.3-2.2-1.1c-1.5,0.2-2.8,1.5-3.8,3.7
		C351.5,203.4,351.1,205.1,350.8,206.9z"/>
	<path class="st4" d="M374.2,202.4c-0.1-1.7-0.4-3-1-3.8c-0.4-0.6-0.8-0.9-1.3-0.8c-0.6,0-1.2,0.4-1.9,1.2c-0.7,0.8-1.4,1.9-2,3.3
		c-0.4,1.1-0.8,2.4-1.1,4c-0.3,1.6-0.4,3.1-0.4,4.6c0.1,3.6,1.2,5.8,3.3,6.6c1.1,0.4,2.2,0.3,3.3-0.5c0.2-0.2,0.5-0.4,0.8-0.6
		c0.3-0.2,0.5-0.5,0.7-0.7s0.4-0.5,0.7-0.8c0.3-0.4,0.5-0.6,0.6-0.8c0.1-0.2,0.3-0.5,0.6-0.9c0.3-0.5,0.5-0.8,0.6-0.9l0.6-0.9
		c0.3-0.5,0.5-0.8,0.5-0.9c0.1-0.2,0.3-0.3,0.5-0.4c0.2-0.1,0.4,0,0.6,0.1c0.2,0.1,0.3,0.3,0.4,0.5c0.1,0.2,0,0.4-0.1,0.6l-0.5,0.9
		c-0.3,0.5-0.5,0.8-0.6,0.9c-0.1,0.2-0.3,0.5-0.6,0.9c-0.3,0.4-0.5,0.8-0.6,1l-0.7,0.9c-0.3,0.4-0.5,0.7-0.8,0.9
		c-0.2,0.2-0.5,0.5-0.8,0.8c-0.3,0.3-0.6,0.5-0.9,0.8c-1.5,1.1-3.1,1.4-4.8,0.8c-2.8-1.1-4.2-3.8-4.3-8.1c0-1.6,0.1-3.2,0.4-4.9
		c0.3-1.7,0.7-3.1,1.2-4.3c0.6-1.6,1.4-2.9,2.4-3.9c0.9-1,1.9-1.5,2.9-1.6c1.1-0.1,2.1,0.5,2.8,1.6c0.7,1.1,1.1,2.6,1.2,4.5
		c0,0.2-0.1,0.4-0.2,0.6c-0.1,0.2-0.3,0.3-0.6,0.3c-0.2,0-0.4-0.1-0.6-0.2C374.3,202.8,374.2,202.7,374.2,202.4z"/>
	<path class="st4" d="M382.5,194.7c-0.9,0-1.7,0.1-2.6,0.3c-0.2,0-0.4,0-0.6-0.1c-0.2-0.1-0.3-0.3-0.3-0.5c0-0.2,0-0.4,0.1-0.6
		c0.1-0.2,0.3-0.3,0.6-0.3c0.9-0.2,1.9-0.2,2.8-0.3c0.1-2.7,0.1-4.7,0.1-6c0-0.2,0.1-0.4,0.2-0.6c0.2-0.2,0.4-0.2,0.6-0.2
		c0.2,0,0.4,0.1,0.6,0.2c0.2,0.2,0.2,0.4,0.2,0.6c0,1.3,0,3.2-0.1,5.9c0.9,0,1.9,0,3,0.1c0.2,0,0.4,0.1,0.6,0.3
		c0.2,0.2,0.2,0.4,0.2,0.6c0,0.2-0.1,0.4-0.3,0.6c-0.2,0.2-0.3,0.2-0.6,0.2c-1.2,0-2.2-0.1-3-0.1c-0.1,8.4,0.2,14.8,0.9,19.1
		c0.3,1.7,0.9,2.9,1.8,3.7c0.9,0.8,2,0.7,3.3-0.1c0.2-0.1,0.4-0.1,0.6-0.1c0.2,0.1,0.4,0.2,0.5,0.3c0.1,0.2,0.1,0.4,0.1,0.6
		c-0.1,0.2-0.2,0.4-0.3,0.5c-1.9,1.2-3.7,1.2-5.2-0.1c-1.2-1-2-2.6-2.4-4.7C382.7,209.7,382.4,203.2,382.5,194.7z"/>
	<path class="st4" d="M393.5,190c0.2,0.1,0.3,0.3,0.3,0.5s-0.1,0.4-0.2,0.6c-0.2,0.2-0.3,0.3-0.6,0.3c-0.2,0-0.4-0.1-0.6-0.2
		c-0.2-0.2-0.3-0.3-0.3-0.6c0-0.2,0.1-0.4,0.2-0.6c0.2-0.2,0.3-0.3,0.6-0.3C393.2,189.8,393.4,189.9,393.5,190z M394.6,196.6
		c0.1,9,0.5,16.1,1.4,21.3c0,0.2,0,0.4-0.1,0.6s-0.3,0.3-0.5,0.3c-0.2,0-0.4,0-0.6-0.1c-0.2-0.1-0.3-0.3-0.3-0.6
		c-0.9-5.4-1.4-12.5-1.4-21.4c0-0.2,0.1-0.4,0.2-0.6c0.2-0.2,0.4-0.2,0.6-0.2c0.2,0,0.4,0.1,0.6,0.2
		C394.5,196.2,394.6,196.4,394.6,196.6z"/>
	<path class="st4" d="M399.1,205.6c0.7-2.4,1.6-4.6,2.7-6.4c1-1.7,2-2.8,3.1-3.5c1.4-0.9,2.8-0.8,4.2,0.3c1,0.7,1.8,2.1,2.4,4.1
		c0.4,1.5,0.8,3.5,1,5.9c0.1,1.2,0.2,2.5,0.3,3.9c0.1,1.4,0.1,2.8,0.1,4.3s0,2.4,0,2.7c0,0.2-0.1,0.4-0.2,0.6
		c-0.2,0.2-0.3,0.3-0.6,0.3c-0.2,0-0.4-0.1-0.6-0.2c-0.2-0.2-0.3-0.3-0.3-0.6c0-0.3,0-1.2,0-2.7c0-1.5-0.1-2.9-0.1-4.2
		c-0.1-1.4-0.1-2.7-0.3-3.9c-0.2-2.3-0.6-4.2-1-5.6c-0.5-1.6-1.1-2.7-1.7-3.3c-0.8-0.6-1.6-0.6-2.4-0.1c-0.8,0.5-1.6,1.4-2.4,2.9
		c-0.7,1.2-1.3,2.5-1.8,3.9c-0.5,1.4-0.9,2.6-1.1,3.5c-0.1,0.6-0.2,1.2-0.3,1.9c-0.1,0.6-0.2,1.3-0.2,2.1c0,0.8-0.1,1.4-0.1,1.8
		s0,1.2-0.1,2.2c0,1,0,1.6,0,2c0,0.1,0,0.2,0,0.3l0,0.1c0,0.1,0,0.1,0,0.2c-0.1,0.3-0.3,0.4-0.6,0.5c-0.4,0-0.7-0.1-0.8-0.4
		l-0.1-0.2c0,0,0-0.1,0-0.1l0-0.5l-0.1-2.1l-0.1-4c-0.2-6.5-0.5-10.9-0.7-13.2c0-0.2,0-0.4,0.2-0.6c0.1-0.2,0.3-0.3,0.6-0.3
		s0.4,0,0.6,0.2c0.2,0.1,0.3,0.3,0.3,0.6C398.8,199.8,399,202.4,399.1,205.6z"/>
	<path class="st4" d="M426.9,197.8c-1-0.9-2.2-0.9-3.7,0c-1.5,0.9-2.9,2.5-4.4,4.8c-1.4,2.3-2.3,4.4-2.7,6.5
		c-0.4,2.2-0.2,3.7,0.7,4.5c0.5,0.5,1.1,0.5,1.9,0.2c0.8-0.4,1.7-1.1,2.7-2.3c0.9-0.9,1.7-2,2.4-3.2c0.8-1.2,1.3-2.1,1.6-2.8
		c0.5-1.2,0.9-2.4,1.1-3.8c0.1-0.6,0.2-1,0.3-1.1c0.1-0.3,0.3-0.5,0.5-0.6c0.3-0.1,0.6-0.1,0.9,0c0.2,0.1,0.3,0.2,0.4,0.3
		c0,0,0.1,0.1,0.1,0.1c0,0.1,0,0.1,0.1,0.2c0,0.1,0.1,0.2,0.1,0.3c0,0.2,0.1,0.5,0.2,0.9c0.1,0.6,0.3,1.5,0.5,2.6
		c0.4,2.1,0.6,3.4,0.7,4c0.6,4.2,0.7,7.4,0.3,9.7c-0.4,1.9-1.1,3.6-2.3,4.9c-1.1,1.4-2.4,2.3-3.7,2.9c-1.3,0.5-2.6,0.7-3.9,0.6
		c-1-0.1-1.8-0.4-2.5-1c-0.7-0.6-1.1-1.3-1.2-2.2c-0.1-0.7,0-1.1,0.3-1.2s0.7,0.2,1.4,1c0.1,1.1,0.9,1.7,2.2,1.8c1,0.1,2,0,3.1-0.5
		c1.1-0.4,2.1-1.2,3.1-2.4s1.6-2.6,1.9-4.2c0.4-2.1,0.3-5.1-0.3-9.1c-0.1-0.5-0.3-1.9-0.7-4l-0.2-1c-0.2,0.8-0.5,1.6-0.9,2.5
		c-0.3,0.7-0.9,1.7-1.7,3c-0.8,1.2-1.7,2.4-2.6,3.4c-1.2,1.3-2.3,2.2-3.3,2.7c-1.5,0.7-2.7,0.5-3.7-0.5c-1.3-1.3-1.6-3.2-1.1-6
		c0.5-2.3,1.4-4.7,2.9-7.1c1.5-2.5,3.2-4.2,4.9-5.3c2.2-1.3,4-1.3,5.6,0.2c0.2,0.2,0.2,0.4,0.2,0.6c0,0.2-0.1,0.4-0.2,0.6
		c-0.2,0.2-0.3,0.3-0.6,0.3C427.3,198,427.1,197.9,426.9,197.8z"/>
</g>
<path class="st5" d="M312.7,248.3c-0.8,3.7-3,6.9-5.7,9.6c-8.5,8.3-21,10.6-32.8,12.5"/>
<path class="st5" d="M391.3,242c3.1,7.2,9.2,12.8,16.1,16.2c7,3.5,14.9,4.8,22.7,5"/>
<path class="st5" d="M359.3,174c13.1-14.2,20.9-33.2,21.6-52.5"/>
<path class="st6" d="M269.8,227.8c59.6-3.8,119.3-5.1,179-3.9"/>
</svg>
